<?xml version="1.0" encoding="UTF-8" standalone="no"?><!-- Generator: Gravit.io --><svg xmlns="http://www.w3.org/2000/svg" xmlns:xlink="http://www.w3.org/1999/xlink" style="isolation:isolate" viewBox="346.256 342.847 937.489 339.306" width="937.489pt" height="339.306pt"><defs><clipPath id="_clipPath_ucOgABdqFOYULOJEGNZKrO9Y9TxKw5tE"><rect x="346.256" y="342.847" width="937.489" height="339.306"/></clipPath></defs><g clip-path="url(#_clipPath_ucOgABdqFOYULOJEGNZKrO9Y9TxKw5tE)"><path d=" M 1282.99 630.863 C 1278.059 609.163 1271.154 581.545 1265.236 567.736 C 1264.25 564.777 1263.263 561.818 1261.29 557.872 C 1251.427 531.241 1232.686 481.923 1187.314 481.923 L 1018.647 481.923 C 1035.415 497.705 1045.279 517.432 1052.183 534.2 L 1086.706 534.2 L 1092.624 655.522 C 1093.61 668.344 1103.474 679.194 1115.31 680.18 C 1127.146 681.167 1138.982 682.153 1151.805 682.153 C 1163.641 682.153 1175.478 681.167 1188.3 680.18 C 1201.123 679.194 1210.986 667.358 1210.986 654.535 L 1212.959 576.613 C 1213.945 580.559 1215.918 584.504 1216.904 587.463 C 1220.85 597.327 1226.768 620.013 1231.7 641.713 C 1235.645 657.494 1252.413 666.371 1267.209 660.453 L 1268.195 660.453 C 1280.031 655.522 1285.949 642.699 1282.99 630.863 Z " fill="rgb(0, 129, 161)"/><circle vector-effect="non-scaling-stroke" cx="1152.7914253261636" cy="404.9872730303997" r="62.14039217680693" fill="rgb(0, 129, 161)"/><path d=" M 838.144 480.937 L 568.869 480.937 C 585.637 496.718 595.501 517.432 602.405 533.213 L 631.996 533.213 L 643.832 653.549 C 643.832 666.371 653.696 677.221 666.518 679.194 C 678.354 680.18 690.191 681.167 702.027 681.167 C 713.863 681.167 726.686 680.18 738.522 679.194 C 751.345 678.208 761.208 666.371 761.208 653.549 L 772.058 533.213 L 803.622 533.213 C 810.526 517.432 821.376 496.718 838.144 480.937 Z " fill="rgb(0, 129, 161)"/><circle vector-effect="non-scaling-stroke" cx="703.0133486178468" cy="404.9872730303997" r="62.14039217680693" fill="rgb(0, 129, 161)"/><path d=" M 591.555 567.736 C 590.569 564.777 589.582 561.818 587.61 557.872 C 577.746 531.241 559.005 481.923 513.633 481.923 L 442.616 481.923 C 396.257 481.923 378.502 531.241 368.639 557.872 C 367.653 561.818 365.68 564.777 364.693 567.736 C 358.775 581.545 351.871 609.163 346.939 630.863 C 343.98 643.685 350.884 655.522 362.721 660.453 C 362.721 660.453 362.721 660.453 363.707 660.453 C 378.502 666.371 395.27 657.494 399.216 641.713 C 404.148 620.013 410.066 596.34 414.011 587.463 C 414.998 584.504 416.97 580.559 417.957 576.613 L 419.929 654.535 C 419.929 667.358 429.793 678.208 442.616 680.18 C 454.452 681.167 466.288 682.153 478.124 682.153 C 489.961 682.153 502.783 681.167 513.633 680.18 C 526.456 679.194 536.319 667.358 536.319 654.535 L 538.292 576.613 C 539.278 580.559 541.251 584.504 542.237 587.463 C 546.183 597.327 552.101 620.013 557.033 641.713 C 560.978 657.494 577.746 666.371 592.542 660.453 C 592.542 660.453 592.542 660.453 593.528 660.453 C 605.364 655.522 612.269 642.699 609.31 630.863 C 604.378 608.176 597.473 581.545 591.555 567.736 Z " fill="rgb(0, 129, 161)"/><circle vector-effect="non-scaling-stroke" cx="478.12431026368836" cy="404.9872730303997" r="62.140392176806955" fill="rgb(0, 129, 161)"/><path d=" M 1041.333 567.736 C 1040.347 564.777 1039.361 561.818 1037.388 557.872 C 1027.524 531.241 1008.784 481.923 963.411 481.923 L 961.439 481.923 L 894.366 481.923 L 892.394 481.923 C 846.035 481.923 828.28 531.241 818.417 557.872 C 817.431 561.818 815.458 564.777 814.472 567.736 C 808.553 581.545 801.649 609.163 796.717 630.863 C 793.758 643.685 800.663 655.522 812.499 660.453 C 812.499 660.453 812.499 660.453 813.485 660.453 C 828.28 666.371 845.049 657.494 848.994 641.713 C 853.926 620.013 859.844 596.34 863.789 587.463 C 864.776 584.504 866.748 580.559 867.735 576.613 L 869.707 654.535 C 869.707 667.358 879.571 678.208 892.394 680.18 C 904.23 681.167 916.066 682.153 927.902 682.153 C 939.739 682.153 952.561 681.167 963.411 680.18 C 976.234 679.194 986.097 667.358 986.097 654.535 L 988.07 576.613 C 989.056 580.559 991.029 584.504 992.016 587.463 C 995.961 597.327 1001.879 620.013 1006.811 641.713 C 1010.756 657.494 1027.524 666.371 1042.32 660.453 C 1042.32 660.453 1042.32 660.453 1043.306 660.453 C 1055.142 655.522 1062.047 642.699 1059.088 630.863 C 1054.156 608.176 1047.251 581.545 1041.333 567.736 Z " fill="rgb(0, 129, 161)"/><circle vector-effect="non-scaling-stroke" cx="927.9023869720052" cy="404.9872730303997" r="62.14039217680693" fill="rgb(0, 129, 161)"/></g></svg>