<svg class="animated" id="freepik_stories-segmentation" xmlns="http://www.w3.org/2000/svg" xmlns:xlink="http://www.w3.org/1999/xlink" viewBox="0 0 500 500" version="1.1" xmlns:svgjs="http://svgjs.com/svgjs"><style>svg#freepik_stories-segmentation:not(.animated) .animable {opacity: 0;}svg#freepik_stories-segmentation.animated #freepik--character-2--inject-19 {animation: 1.5s Infinite  linear floating;animation-delay: 0s;}svg#freepik_stories-segmentation.animated #freepik--character-1--inject-19 {animation: 1.5s Infinite  linear floating;animation-delay: 0s;}svg#freepik_stories-segmentation.animated #freepik--character-3--inject-19 {animation: 1.5s Infinite  linear floating;animation-delay: 0s;}            @keyframes floating {                0% {                    opacity: 1;                    transform: translateY(0px);                }                50% {                    transform: translateY(-10px);                }                100% {                    opacity: 1;                    transform: translateY(0px);                }            }        </style><g id="freepik--background-simple--inject-19" class="animable" style="transform-origin: 246.939px 251.675px;"><path d="M412.63,150.73S388.52,96,335.3,87.87s-90.39,31.43-129.55,51.71c-20.51,10.62-43.94,6.49-65.71,11.63C70.41,167.64,44.18,270.6,73.19,329.15c25.1,50.69,69.29,77.05,136.57,83.13s114.49,13.18,174.75-36.49S440.74,222.71,412.63,150.73Z" style="fill: rgb(255, 211, 1); transform-origin: 246.939px 251.675px;" id="el3pvoe8ffhf8" class="animable"></path><g id="elogfsjdf91c"><path d="M412.63,150.73S388.52,96,335.3,87.87s-90.39,31.43-129.55,51.71c-20.51,10.62-43.94,6.49-65.71,11.63C70.41,167.64,44.18,270.6,73.19,329.15c25.1,50.69,69.29,77.05,136.57,83.13s114.49,13.18,174.75-36.49S440.74,222.71,412.63,150.73Z" style="fill: rgb(255, 255, 255); opacity: 0.75; transform-origin: 246.939px 251.675px;" class="animable"></path></g></g><g id="freepik--Chart--inject-19" class="animable" style="transform-origin: 250.36px 252.839px;"><path d="M192.18,395.34c77.55,31.6,166.23-5,199.14-81.61L272.15,265.16l-22.21-9.05L101.69,292.6C114.42,340.89,145.65,376.38,192.18,395.34Z" style="fill: rgb(255, 211, 1); transform-origin: 246.505px 331.405px;" id="elfx6ksj8vivu" class="animable"></path><path d="M275.3,218.77l71.74-85c-21.17-17.28-44.57-28.21-69.41-32.6-20.55-3.62-42.1-2.77-64.19,2.67-81.32,20-131.56,101.74-113.14,183.08l115.21-28.36,33-8.13Z" style="fill: rgb(255, 211, 1); transform-origin: 221.769px 192.95px;" id="elmp3zlsz2on" class="animable"></path><g id="ellint7fu7dr"><path d="M275.3,218.77l71.74-85c-21.17-17.28-44.57-28.21-69.41-32.6-20.55-3.62-42.1-2.77-64.19,2.67-81.32,20-131.56,101.74-113.14,183.08l115.21-28.36,33-8.13Z" style="opacity: 0.3; transform-origin: 221.769px 192.95px;" class="animable"></path></g><path d="M351.49,137.55,255,251.87l96.39,39.28,42.15,17.18C417.2,247.17,400.85,180.74,351.49,137.55Z" style="fill: rgb(255, 255, 255); transform-origin: 329.611px 222.94px;" id="elqidmcg433r" class="animable"></path><line x1="233.03" y1="132.75" x2="271.03" y2="132.75" style="fill: none; stroke: rgb(38, 50, 56); stroke-linecap: round; stroke-linejoin: round; transform-origin: 252.03px 132.75px;" id="eln1qvkhlv6se" class="animable"></line><line x1="233.03" y1="139.22" x2="271.03" y2="139.22" style="fill: none; stroke: rgb(38, 50, 56); stroke-linecap: round; stroke-linejoin: round; transform-origin: 252.03px 139.22px;" id="el1rhg7o16272" class="animable"></line><line x1="233.03" y1="145.69" x2="271.03" y2="145.69" style="fill: none; stroke: rgb(38, 50, 56); stroke-linecap: round; stroke-linejoin: round; transform-origin: 252.03px 145.69px;" id="elf3d7t3rxty" class="animable"></line><line x1="233.03" y1="152.16" x2="271.03" y2="152.16" style="fill: none; stroke: rgb(38, 50, 56); stroke-linecap: round; stroke-linejoin: round; transform-origin: 252.03px 152.16px;" id="elmxsnfy3luh" class="animable"></line><line x1="266.99" y1="221.7" x2="305" y2="221.7" style="fill: none; stroke: rgb(38, 50, 56); stroke-linecap: round; stroke-linejoin: round; transform-origin: 285.995px 221.7px;" id="el35svx6nguq2" class="animable"></line><line x1="266.99" y1="228.17" x2="305" y2="228.17" style="fill: none; stroke: rgb(38, 50, 56); stroke-linecap: round; stroke-linejoin: round; transform-origin: 285.995px 228.17px;" id="elgarcfrz3bn" class="animable"></line><line x1="266.99" y1="234.64" x2="305" y2="234.64" style="fill: none; stroke: rgb(38, 50, 56); stroke-linecap: round; stroke-linejoin: round; transform-origin: 285.995px 234.64px;" id="el3u8acqxaxh2" class="animable"></line><line x1="266.99" y1="241.11" x2="305" y2="241.11" style="fill: none; stroke: rgb(38, 50, 56); stroke-linecap: round; stroke-linejoin: round; transform-origin: 285.995px 241.11px;" id="el03wizjslggcd" class="animable"></line><line x1="144.88" y1="305.81" x2="182.89" y2="305.81" style="fill: none; stroke: rgb(38, 50, 56); stroke-linecap: round; stroke-linejoin: round; transform-origin: 163.885px 305.81px;" id="elaoq78am0le" class="animable"></line><line x1="144.88" y1="312.28" x2="182.89" y2="312.28" style="fill: none; stroke: rgb(38, 50, 56); stroke-linecap: round; stroke-linejoin: round; transform-origin: 163.885px 312.28px;" id="el0120sw0hesdb" class="animable"></line><line x1="144.88" y1="318.74" x2="182.89" y2="318.74" style="fill: none; stroke: rgb(38, 50, 56); stroke-linecap: round; stroke-linejoin: round; transform-origin: 163.885px 318.74px;" id="eld88tk33rmxu" class="animable"></line><line x1="144.88" y1="325.21" x2="182.89" y2="325.21" style="fill: none; stroke: rgb(38, 50, 56); stroke-linecap: round; stroke-linejoin: round; transform-origin: 163.885px 325.21px;" id="elkmxmbsmvok" class="animable"></line></g><g id="freepik--character-2--inject-19" class="animable animator-active" style="transform-origin: 344.8px 229.344px;"><g style="clip-path: url(&quot;#freepik--clip-path--inject-19&quot;); transform-origin: 344.8px 229.344px;" id="ellx1m1c6ekjo" class="animable"><path d="M325.21,173.4s2.69-17.79,15.78-24.84,27.2-2.36,37.61,5.37,11.08,24.51,9.06,34.58S373.9,253,373.9,253l-52-.67Z" style="fill: rgb(255, 211, 1); stroke: rgb(38, 50, 56); stroke-linecap: round; stroke-linejoin: round; transform-origin: 355.235px 199.049px;" id="elzikuxeasarp" class="animable"></path><path d="M350,151.8s-8.31,4.56-10.73,16.09" style="fill: none; stroke: rgb(38, 50, 56); stroke-linecap: round; stroke-linejoin: round; transform-origin: 344.635px 159.845px;" id="elu6hdojel1md" class="animable"></path><path d="M350,172.39a25.18,25.18,0,0,0-.29,3.55" style="fill: none; stroke: rgb(38, 50, 56); stroke-linecap: round; stroke-linejoin: round; transform-origin: 349.855px 174.165px;" id="elwa6xklbb308" class="animable"></path><path d="M356.44,152.6a99.5,99.5,0,0,0-5.75,16.34" style="fill: none; stroke: rgb(38, 50, 56); stroke-linecap: round; stroke-linejoin: round; transform-origin: 353.565px 160.77px;" id="el2bx4hv681lp" class="animable"></path><path d="M365.56,152.6s1.07,17.17-1.08,27.09" style="fill: none; stroke: rgb(38, 50, 56); stroke-linecap: round; stroke-linejoin: round; transform-origin: 365.153px 166.145px;" id="elsrzusfjyl" class="animable"></path><path d="M376.69,176.64A30.5,30.5,0,0,1,376,180" style="fill: none; stroke: rgb(38, 50, 56); stroke-linecap: round; stroke-linejoin: round; transform-origin: 376.345px 178.32px;" id="el30602frixk8" class="animable"></path><path d="M373.07,153.94a43,43,0,0,1,4,18.25" style="fill: none; stroke: rgb(38, 50, 56); stroke-linecap: round; stroke-linejoin: round; transform-origin: 375.07px 163.065px;" id="el8ntzzsajfl" class="animable"></path><path d="M345,232.16s-36.6,14.44-39.29,18.47-18.8,55.07-18.8,55.07l115.78,7.89S393.37,261.37,390,256s-30.55-20.14-36.26-22.49S345,232.16,345,232.16Z" style="fill: rgb(255, 255, 255); stroke: rgb(38, 50, 56); stroke-linecap: round; stroke-linejoin: round; transform-origin: 344.8px 272.769px;" id="elhxsk8qmxwf" class="animable"></path><line x1="372.11" y1="300.71" x2="377.48" y2="268.49" style="fill: none; stroke: rgb(38, 50, 56); stroke-linecap: round; stroke-linejoin: round; transform-origin: 374.795px 284.6px;" id="elao6ns5cak85" class="animable"></line><path d="M372.55,264.73A71,71,0,0,1,374,244.37a219.62,219.62,0,0,0-20.28-10.86c-5.71-2.36-8.73-1.35-8.73-1.35s-12.13,4.79-22.94,9.62c-1.66,5.79-5.2,16.51-11,26-8.4,13.77-9.07,26.87-5.71,32.24,2,3.26,3.21,4.91,3.82,5.71h63C372.45,301.57,373.46,279.31,372.55,264.73Z" style="fill: rgb(38, 50, 56); stroke: rgb(38, 50, 56); stroke-linecap: round; stroke-linejoin: round; transform-origin: 338.725px 268.838px;" id="el55wkcs9r3pn" class="animable"></path><path d="M341,284.21c3.28-.66,20.67-31.14,26.16-43.8-5.92-3.3-11.22-6-13.4-6.9-5.71-2.36-8.73-1.35-8.73-1.35s-6.57,2.59-14.34,5.89c-.6,6-1,15.07.57,22.65C333.94,273.46,337.63,284.88,341,284.21Z" style="fill: rgb(255, 255, 255); stroke: rgb(38, 50, 56); stroke-linecap: round; stroke-linejoin: round; transform-origin: 348.66px 258.092px;" id="elzrullm2q18s" class="animable"></path><line x1="331.84" y1="256.68" x2="336.68" y2="259.9" style="fill: none; stroke: rgb(38, 50, 56); stroke-linecap: round; stroke-linejoin: round; transform-origin: 334.26px 258.29px;" id="el83758b0f0cj" class="animable"></line><line x1="354.39" y1="263.12" x2="346.34" y2="262.05" style="fill: none; stroke: rgb(38, 50, 56); stroke-linecap: round; stroke-linejoin: round; transform-origin: 350.365px 262.585px;" id="eld03ajl6se5b" class="animable"></line><path d="M334.11,246.92s.18-8.38.5-11.74c.38-3.94.34-15.44.34-15.44l25.52,3-2.35,22.16" style="fill: rgb(255, 255, 255); transform-origin: 347.29px 233.33px;" id="el53dd391ho73" class="animable"></path><g style="clip-path: url(&quot;#freepik--clip-path-2--inject-19&quot;); transform-origin: 347.555px 231.47px;" id="elm6e7m6avd1s" class="animable"><path d="M334.61,235.18l0,.39c2.59,3.53,6.32,7.61,9.71,7.61s9.52-3.18,14.66-6.1l1.52-14.32-25.52-3S335,231.24,334.61,235.18Z" style="fill: rgb(255, 211, 1); transform-origin: 347.555px 231.47px;" id="elex72lmd9q1i" class="animable"></path><g id="el0cogq4ekgfln"><path d="M334.61,235.18l0,.39c2.59,3.53,6.32,7.61,9.71,7.61s9.52-3.18,14.66-6.1l1.52-14.32-25.52-3S335,231.24,334.61,235.18Z" style="fill: rgb(255, 255, 255); opacity: 0.5; transform-origin: 347.555px 231.47px;" class="animable"></path></g></g><path d="M334.11,246.92s.18-8.38.5-11.74c.38-3.94.34-15.44.34-15.44l25.52,3-2.35,22.16" style="fill: none; stroke: rgb(38, 50, 56); stroke-linecap: round; stroke-linejoin: round; transform-origin: 347.29px 233.33px;" id="elxw4h7ksbn4n" class="animable"></path><path d="M331.92,178.44s-.44,2.51-1,6.18c-1.15,7.82-2.74,20.91-1.37,26.39,2,8.06,10.08,24.85,14.11,26.52s18.46-8.05,23.5-13.76,10.07-32.57,10.07-32.57l-10.4.33.33-6-2,5.71-16.46-2.69.68-6.38-3.7,6.05-11.08-3v-5.37l-2.35,5.37Z" style="fill: rgb(255, 255, 255); transform-origin: 353.125px 208.08px;" id="elaotwgttlg9" class="animable"></path><g style="clip-path: url(&quot;#freepik--clip-path-3--inject-19&quot;); transform-origin: 353.855px 187.487px;" id="elr9ut3qxexe" class="animable"><path d="M367.18,185.49l-2,5.71-16.46-2.69.68-6.38-3.7,6.05-11.08-3v-5.37l-2.35,5.37-.34-6.71s-.44,2.51-1,6.18c-.14.91-.28,1.9-.42,2.93,4.07,2.18,20.73,10.12,45.69,8.77.66-3.07,1-5.12,1-5.12l-10.4.33Z" style="fill: rgb(255, 211, 1); transform-origin: 353.855px 187.487px;" id="eljn4z8yu7uag" class="animable"></path><g id="el8qxt8vjs5vr"><path d="M367.18,185.49l-2,5.71-16.46-2.69.68-6.38-3.7,6.05-11.08-3v-5.37l-2.35,5.37-.34-6.71s-.44,2.51-1,6.18c-.14.91-.28,1.9-.42,2.93,4.07,2.18,20.73,10.12,45.69,8.77.66-3.07,1-5.12,1-5.12l-10.4.33Z" style="fill: rgb(255, 255, 255); opacity: 0.5; transform-origin: 353.855px 187.487px;" class="animable"></path></g></g><path d="M331.92,178.44s-.44,2.51-1,6.18c-1.15,7.82-2.74,20.91-1.37,26.39,2,8.06,10.08,24.85,14.11,26.52s18.46-8.05,23.5-13.76,10.07-32.57,10.07-32.57l-10.4.33.33-6-2,5.71-16.46-2.69.68-6.38-3.7,6.05-11.08-3v-5.37l-2.35,5.37Z" style="fill: none; stroke: rgb(38, 50, 56); stroke-linecap: round; stroke-linejoin: round; transform-origin: 353.125px 208.08px;" id="elavpb5ojjeco" class="animable"></path><path d="M343,196.9c-.22,1.77-1.15,3.12-2.07,3s-1.48-1.65-1.26-3.42,1.15-3.12,2.07-3S343.19,195.12,343,196.9Z" style="fill: rgb(38, 50, 56); transform-origin: 341.33px 196.69px;" id="el7loahq4t8x4" class="animable"></path><path d="M361.93,201.7c-.23,1.77-1.15,3.12-2.07,3s-1.49-1.65-1.27-3.42,1.16-3.12,2.08-3S362.15,199.92,361.93,201.7Z" style="fill: rgb(38, 50, 56); transform-origin: 360.26px 201.49px;" id="elqn67ejzlsb" class="animable"></path><path d="M350.66,195.37s-.48,5.28-1.92,6.48-4.56,3.12-4.56,4.32,1.68,3.12,5,2.88" style="fill: none; stroke: rgb(38, 50, 56); stroke-linecap: round; stroke-linejoin: round; transform-origin: 347.42px 202.22px;" id="elkkueqei0p3" class="animable"></path><path d="M342.26,214.33s4.32,4.56,11,1.2" style="fill: none; stroke: rgb(38, 50, 56); stroke-linecap: round; stroke-linejoin: round; transform-origin: 347.76px 215.548px;" id="elywgck99xc4d" class="animable"></path><path d="M337,188.43s4.74-3.43,10.8.79" style="fill: none; stroke: rgb(38, 50, 56); stroke-linecap: round; stroke-linejoin: round; transform-origin: 342.4px 188.168px;" id="elgxkn8ti48m" class="animable"></path><path d="M356.9,192.49s6.48-3.84,12.72,2.4" style="fill: none; stroke: rgb(38, 50, 56); stroke-linecap: round; stroke-linejoin: round; transform-origin: 363.26px 193.106px;" id="elgxh09z471db" class="animable"></path><path d="M378.93,185.15s-12.42,37.95-17.12,58.43-7.05,46.67-6.72,53,.67,6.38,5-1S377.93,255,381,236.86s7.38-47.68,7.38-54.73" style="fill: rgb(255, 211, 1); transform-origin: 371.72px 241.679px;" id="elqrcmazwnpci" class="animable"></path><g style="clip-path: url(&quot;#freepik--clip-path-4--inject-19&quot;); transform-origin: 364.414px 265.298px;" id="elb68rvmeu5x8" class="animable"><g id="el4p2hhuktzj"><path d="M366.74,276.55l7-47.25L360.3,283.52l6.85-43.11-11.39,42.78a119.14,119.14,0,0,0-.67,13.44c.34,6.38.67,6.38,5-1,2.19-3.7,6.65-13.9,10.95-25.44Z" style="opacity: 0.2; transform-origin: 364.414px 265.298px;" class="animable"></path></g></g><path d="M378.93,185.15s-12.42,37.95-17.12,58.43-7.05,46.67-6.72,53,.67,6.38,5-1S377.93,255,381,236.86s7.38-47.68,7.38-54.73" style="fill: none; stroke: rgb(38, 50, 56); stroke-linecap: round; stroke-linejoin: round; transform-origin: 371.72px 241.679px;" id="eleuxhj16nmsi" class="animable"></path><path d="M327.9,163.66s-8.4,27.87-14.78,52.39,9.4,82.59,12.76,79.91,1-86.29,3-94S333.6,167,333.6,167" style="fill: rgb(255, 211, 1); transform-origin: 322.608px 229.855px;" id="elcpww5rhp0x6" class="animable"></path><g style="clip-path: url(&quot;#freepik--clip-path-5--inject-19&quot;); transform-origin: 320.125px 259.45px;" id="el6s4ngbwd06w" class="animable"><g id="el4jqqszyj06"><path d="M325.4,222.86l-2.15,43.48-4.83-38.65v38.12L312.37,244c2.59,25.48,11.14,53.84,13.51,51.95,1.52-1.21,1.87-18.88,2-38.62Z" style="opacity: 0.2; transform-origin: 320.125px 259.45px;" class="animable"></path></g></g><path d="M327.9,163.66s-8.4,27.87-14.78,52.39,9.4,82.59,12.76,79.91,1-86.29,3-94S333.6,167,333.6,167" style="fill: none; stroke: rgb(38, 50, 56); stroke-linecap: round; stroke-linejoin: round; transform-origin: 322.608px 229.855px;" id="el5c4uw2opxxs" class="animable"></path></g></g><g id="freepik--character-1--inject-19" class="animable" style="transform-origin: 189.63px 199.46px;"><g style="clip-path: url(&quot;#freepik--clip-path-6--inject-19&quot;); transform-origin: 189.63px 199.46px;" id="el1vl0lglhklh" class="animable"><path d="M155.36,227.57s8.13-32.65.52-78.15L212.11,144s8,62.16,17.28,81.51Z" style="fill: rgb(255, 255, 255); transform-origin: 192.375px 185.785px;" id="elxzlry44qtb" class="animable"></path><g style="clip-path: url(&quot;#freepik--clip-path-7--inject-19&quot;); transform-origin: 192.375px 185.785px;" id="elmek58yooafm" class="animable"><g id="el1eeykof1o8o"><path d="M155.36,227.57s8.13-32.65.52-78.15L212.11,144s8,62.16,17.28,81.51Z" style="opacity: 0.5; transform-origin: 192.375px 185.785px;" class="animable"></path></g></g><path d="M155.36,227.57s8.13-32.65.52-78.15L212.11,144s8,62.16,17.28,81.51Z" style="fill: none; stroke: rgb(38, 50, 56); stroke-linecap: round; stroke-linejoin: round; transform-origin: 192.375px 185.785px;" id="el90170l0f4uu" class="animable"></path><path d="M164.46,228s4.86-45.33.32-65.09" style="fill: none; stroke: rgb(38, 50, 56); stroke-linecap: round; stroke-linejoin: round; transform-origin: 165.589px 195.455px;" id="elh53anoil4n" class="animable"></path><path d="M171.26,164.16s4.86,35,2.59,63.14" style="fill: none; stroke: rgb(38, 50, 56); stroke-linecap: round; stroke-linejoin: round; transform-origin: 172.857px 195.73px;" id="eleptk48xheg" class="animable"></path><line x1="200.08" y1="171.61" x2="204.29" y2="226.33" style="fill: none; stroke: rgb(38, 50, 56); stroke-linecap: round; stroke-linejoin: round; transform-origin: 202.185px 198.97px;" id="el69v4efkgh9u" class="animable"></line><path d="M204.29,165.78s5.18,51.16,9.07,60.88" style="fill: none; stroke: rgb(38, 50, 56); stroke-linecap: round; stroke-linejoin: round; transform-origin: 208.825px 196.22px;" id="elxgksp4pf2qn" class="animable"></path><path d="M208.5,157s9.71,55.69,15.54,69" style="fill: none; stroke: rgb(38, 50, 56); stroke-linecap: round; stroke-linejoin: round; transform-origin: 216.27px 191.5px;" id="el463mdmxme3b" class="animable"></path><path d="M159.75,164.89s-2.07-5.67-5.42-4.12S153,171.6,156.39,176s8-1,8-1Z" style="fill: rgb(255, 255, 255); transform-origin: 158.502px 169.114px;" id="elsbg9079o4rn" class="animable"></path><g style="clip-path: url(&quot;#freepik--clip-path-8--inject-19&quot;); transform-origin: 158.502px 169.114px;" id="el1voo7rsgq4x" class="animable"><g id="ell6zqx3m7ag"><path d="M159.75,164.89s-2.07-5.67-5.42-4.12S153,171.6,156.39,176s8-1,8-1Z" style="opacity: 0.1; transform-origin: 158.502px 169.114px;" class="animable"></path></g><path d="M155.64,169.48s-1.15-4.33.29-4,5.47,4.61,5.47,4.61-3.74-.57-2.59,1.16" style="fill: none; stroke: rgb(38, 50, 56); stroke-linecap: round; stroke-linejoin: round; transform-origin: 158.303px 168.356px;" id="el2docy07k0gv" class="animable"></path></g><path d="M159.75,164.89s-2.07-5.67-5.42-4.12S153,171.6,156.39,176s8-1,8-1Z" style="fill: none; stroke: rgb(38, 50, 56); stroke-linecap: round; stroke-linejoin: round; transform-origin: 158.502px 169.114px;" id="elznsx9o7cgkq" class="animable"></path><path d="M212.23,160.17s.6-6,4.23-5.34,3.93,10.18,1.77,15.26-8,1-8,1Z" style="fill: rgb(255, 255, 255); transform-origin: 214.908px 163.71px;" id="elqoga6lt9xx" class="animable"></path><g style="clip-path: url(&quot;#freepik--clip-path-9--inject-19&quot;); transform-origin: 214.908px 163.71px;" id="elvlk5q915wep" class="animable"><g id="el06427gowhdjh"><path d="M212.23,160.17s.6-6,4.23-5.34,3.93,10.18,1.77,15.26-8,1-8,1Z" style="opacity: 0.1; transform-origin: 214.908px 163.71px;" class="animable"></path></g><path d="M218.24,163.57s-.1-4.48-1.41-3.8-4,6-4,6,3.44-1.6,2.82.38" style="fill: none; stroke: rgb(38, 50, 56); stroke-linecap: round; stroke-linejoin: round; transform-origin: 215.535px 162.925px;" id="elwc2r60nk38l" class="animable"></path></g><path d="M212.23,160.17s.6-6,4.23-5.34,3.93,10.18,1.77,15.26-8,1-8,1Z" style="fill: none; stroke: rgb(38, 50, 56); stroke-linecap: round; stroke-linejoin: round; transform-origin: 214.908px 163.71px;" id="el4gy5uybhtmi" class="animable"></path><path d="M240.69,218.77c-5.16-5.16-15.48-1.29-23-2.06s-15.47-3.36-17-7.48S202,183.69,202,183.69l-12.38,2-12.38-2s2.83,21.41,1.29,25.54-9.55,6.7-17,7.48-17.8-3.1-22.95,2.06-7.23,67.84-7.23,67.84H247.91S245.85,223.93,240.69,218.77Z" style="fill: rgb(255, 255, 255); transform-origin: 189.63px 235.15px;" id="elilz2maewwn" class="animable"></path><g style="clip-path: url(&quot;#freepik--clip-path-10--inject-19&quot;); transform-origin: 189.63px 235.15px;" id="elrlthkgqvsgb" class="animable"><g id="el42j3gkk00co"><path d="M240.69,218.77c-5.16-5.16-15.48-1.29-23-2.06s-15.47-3.36-17-7.48S202,183.69,202,183.69l-12.38,2-12.38-2s2.83,21.41,1.29,25.54-9.55,6.7-17,7.48-17.8-3.1-22.95,2.06-7.23,67.84-7.23,67.84H247.91S245.85,223.93,240.69,218.77Z" style="opacity: 0.1; transform-origin: 189.63px 235.15px;" class="animable"></path></g><g style="clip-path: url(&quot;#freepik--clip-path-11--inject-19&quot;); transform-origin: 189.739px 206.525px;" id="elp8ekq45sjml" class="animable"><path d="M202,183.69l-12.38,2-12.38-2s1.72,13,1.75,20.68c2.27,1.43,6.33,2.72,13.55,2.59a17,17,0,0,0,7.71-2C200.19,197.34,202,183.69,202,183.69Z" style="fill: rgb(255, 211, 1); stroke: rgb(38, 50, 56); stroke-linecap: round; stroke-linejoin: round; transform-origin: 189.62px 195.33px;" id="el1fg6qgbu71o" class="animable"></path><g id="eldmo472arkt"><path d="M216.53,224.78s-23.47,3.1-20.89,3.87,20.63-.77,20.63-.77S223.75,227.88,216.53,224.78Z" style="opacity: 0.2; transform-origin: 207.557px 226.823px;" class="animable"></path></g><g id="elk2zteew1g5m"><path d="M162.11,224s22.44,7.22,20.89,4.9-20.89-9-22.69-8S162.11,224,162.11,224Z" style="opacity: 0.2; transform-origin: 171.441px 225.079px;" class="animable"></path></g></g></g><path d="M240.69,218.77c-5.16-5.16-15.48-1.29-23-2.06s-15.47-3.36-17-7.48S202,183.69,202,183.69l-12.38,2-12.38-2s2.83,21.41,1.29,25.54-9.55,6.7-17,7.48-17.8-3.1-22.95,2.06-7.23,67.84-7.23,67.84H247.91S245.85,223.93,240.69,218.77Z" style="fill: none; stroke: rgb(38, 50, 56); stroke-linecap: round; stroke-linejoin: round; transform-origin: 189.63px 235.15px;" id="elo014ms0izl" class="animable"></path><path d="M232.44,277.32c3.35-11.09-.52-20.11-4.9-33.53-3.42-10.44-3.08-22.44-2.76-27.25a38.32,38.32,0,0,1-7.05.17l-1.07-.13c-1.55,8-6.95,27.09-23.43,29.53-17.29,2.56-28-21.19-31.24-29.46l-.49.06a35.28,35.28,0,0,1-6.54-.13,45.92,45.92,0,0,1,1.38,13.54c-.51,10.32-5.93,28.12-5.93,38.43,0,6.45,2,13.6,3.53,18.06h75.61C230.37,284,231.42,280.69,232.44,277.32Z" style="fill: rgb(255, 211, 1); stroke: rgb(38, 50, 56); stroke-linecap: round; stroke-linejoin: round; transform-origin: 192.059px 251.575px;" id="elxv5sujtii7f" class="animable"></path><path d="M163.93,119.33l-.1.09c-12.83,10.71-11.43,29-5.52,43.05,3.35,7.93,6.55,15.53,11.27,22.71,5.93,9,15.45,17.37,25.25,14s18.83-29.41,18.57-49c-.15-11.26-4.51-23.67-13-31.43a25.3,25.3,0,0,0-16.59-6.44A32.73,32.73,0,0,0,163.93,119.33Z" style="fill: rgb(255, 255, 255); transform-origin: 183.681px 156.126px;" id="el089c57koizgb" class="animable"></path><g style="clip-path: url(&quot;#freepik--clip-path-12--inject-19&quot;); transform-origin: 183.681px 156.126px;" id="elgscwpntz16t" class="animable"><g id="elln35lndw03j"><path d="M163.93,119.33l-.1.09c-12.83,10.71-11.43,29-5.52,43.05,3.35,7.93,6.55,15.53,11.27,22.71,5.93,9,15.45,17.37,25.25,14s18.83-29.41,18.57-49c-.15-11.26-4.51-23.67-13-31.43a25.3,25.3,0,0,0-16.59-6.44A32.73,32.73,0,0,0,163.93,119.33Z" style="opacity: 0.1; transform-origin: 183.681px 156.126px;" class="animable"></path></g></g><path d="M163.93,119.33l-.1.09c-12.83,10.71-11.43,29-5.52,43.05,3.35,7.93,6.55,15.53,11.27,22.71,5.93,9,15.45,17.37,25.25,14s18.83-29.41,18.57-49c-.15-11.26-4.51-23.67-13-31.43a25.3,25.3,0,0,0-16.59-6.44A32.73,32.73,0,0,0,163.93,119.33Z" style="fill: none; stroke: rgb(38, 50, 56); stroke-linecap: round; stroke-linejoin: round; transform-origin: 183.681px 156.126px;" id="el1k6rie120tr" class="animable"></path><path d="M183.22,170.31s-1.81,3.1-.77,4.64a2.34,2.34,0,0,0,2.83.78,9.92,9.92,0,0,0,4.65.26c2.32-.52,2.83-1.55,2.83-1.55s1.55,1,2.07-1.29-2.07-4.39-2.07-4.39" style="fill: none; stroke: rgb(38, 50, 56); stroke-linecap: round; stroke-linejoin: round; transform-origin: 188.513px 172.456px;" id="ele0iquzm2tsm" class="animable"></path><path d="M180.64,183s5.42,8.51,11.35,6.45,7.48-9,7.48-9A31.44,31.44,0,0,1,180.64,183Z" style="fill: rgb(255, 255, 255); transform-origin: 190.055px 185.111px;" id="elsaipq4bua" class="animable"></path><g style="clip-path: url(&quot;#freepik--clip-path-13--inject-19&quot;); transform-origin: 190.055px 185.111px;" id="elynbhbb3fzd" class="animable"><g id="el66o6auolkc7"><path d="M180.64,183s5.42,8.51,11.35,6.45,7.48-9,7.48-9A31.44,31.44,0,0,1,180.64,183Z" style="opacity: 0.2; transform-origin: 190.055px 185.111px;" class="animable"></path></g></g><path d="M180.64,183s5.42,8.51,11.35,6.45,7.48-9,7.48-9A31.44,31.44,0,0,1,180.64,183Z" style="fill: none; stroke: rgb(38, 50, 56); stroke-linecap: round; stroke-linejoin: round; transform-origin: 190.055px 185.111px;" id="elaw0eq6oiltq" class="animable"></path><path d="M180.64,183s11.35,2.58,18.83-2.58c0,0-4.38-1.29-6.45-1a5.44,5.44,0,0,0-3.35,2.06,15,15,0,0,0-4.64-1.29C183.22,180.11,180.64,183,180.64,183Z" style="fill: rgb(255, 255, 255); transform-origin: 190.055px 181.511px;" id="elj6ngxk8y01" class="animable"></path><g style="clip-path: url(&quot;#freepik--clip-path-14--inject-19&quot;); transform-origin: 190.055px 181.511px;" id="elg2rzk3zbl9b" class="animable"><g id="eli48zwp45sso"><path d="M180.64,183s11.35,2.58,18.83-2.58c0,0-4.38-1.29-6.45-1a5.44,5.44,0,0,0-3.35,2.06,15,15,0,0,0-4.64-1.29C183.22,180.11,180.64,183,180.64,183Z" style="opacity: 0.2; transform-origin: 190.055px 181.511px;" class="animable"></path></g></g><path d="M180.64,183s11.35,2.58,18.83-2.58c0,0-4.38-1.29-6.45-1a5.44,5.44,0,0,0-3.35,2.06,15,15,0,0,0-4.64-1.29C183.22,180.11,180.64,183,180.64,183Z" style="fill: none; stroke: rgb(38, 50, 56); stroke-linecap: round; stroke-linejoin: round; transform-origin: 190.055px 181.511px;" id="el0c2sfx4vj24j" class="animable"></path><path d="M199.74,161.81c0,1.78-.68,3.24-1.6,3.26s-1.7-1.41-1.74-3.19.68-3.24,1.6-3.25S199.7,160,199.74,161.81Z" style="fill: rgb(38, 50, 56); transform-origin: 198.069px 161.85px;" id="elw4ulhacxdc" class="animable"></path><path d="M179.11,163.62c0,1.78-.69,3.23-1.61,3.25s-1.7-1.4-1.74-3.18.69-3.24,1.61-3.26S179.07,161.84,179.11,163.62Z" style="fill: rgb(38, 50, 56); transform-origin: 177.434px 163.65px;" id="el49ln48a5a7s" class="animable"></path><path d="M168.52,158.7s2.58-5.16,11.09-4.38" style="fill: none; stroke: rgb(38, 50, 56); stroke-linecap: round; stroke-linejoin: round; transform-origin: 174.065px 156.47px;" id="eltb43bmmihyo" class="animable"></path><path d="M192,154.06s7-3.1,11.87,2.84" style="fill: none; stroke: rgb(38, 50, 56); stroke-linecap: round; stroke-linejoin: round; transform-origin: 197.935px 155.076px;" id="elq57aoci1507" class="animable"></path><path d="M200.36,118.76a25.3,25.3,0,0,0-16.59-6.44,32.73,32.73,0,0,0-19.84,7l-.1.09c-12.54,10.47-11.48,28.23-5.9,42.11.66-4.7,3-15.47,11.1-22.17,10.58-8.77,21.15-7.23,28.38-3.36a34.29,34.29,0,0,1,15.91,18.38c.07-1.42.1-2.82.08-4.19C213.25,138.93,208.89,126.52,200.36,118.76Z" style="fill: rgb(255, 255, 255); transform-origin: 183.684px 136.92px;" id="eloe4ij8zydx" class="animable"></path><g style="clip-path: url(&quot;#freepik--clip-path-15--inject-19&quot;); transform-origin: 183.684px 136.92px;" id="elc2yhn3m7jjd" class="animable"><g id="elzya53drwo4"><path d="M200.36,118.76a25.3,25.3,0,0,0-16.59-6.44,32.73,32.73,0,0,0-19.84,7l-.1.09c-12.54,10.47-11.48,28.23-5.9,42.11.66-4.7,3-15.47,11.1-22.17,10.58-8.77,21.15-7.23,28.38-3.36a34.29,34.29,0,0,1,15.91,18.38c.07-1.42.1-2.82.08-4.19C213.25,138.93,208.89,126.52,200.36,118.76Z" style="opacity: 0.5; transform-origin: 183.684px 136.92px;" class="animable"></path></g></g><path d="M200.36,118.76a25.3,25.3,0,0,0-16.59-6.44,32.73,32.73,0,0,0-19.84,7l-.1.09c-12.54,10.47-11.48,28.23-5.9,42.11.66-4.7,3-15.47,11.1-22.17,10.58-8.77,21.15-7.23,28.38-3.36a34.29,34.29,0,0,1,15.91,18.38c.07-1.42.1-2.82.08-4.19C213.25,138.93,208.89,126.52,200.36,118.76Z" style="fill: none; stroke: rgb(38, 50, 56); stroke-linecap: round; stroke-linejoin: round; transform-origin: 183.684px 136.92px;" id="ellvbdhbcmham" class="animable"></path><path d="M155.1,132.65s.78,9.8,11.1,8.77" style="fill: none; stroke: rgb(38, 50, 56); stroke-linecap: round; stroke-linejoin: round; transform-origin: 160.65px 137.073px;" id="el11z16mu1j1hj" class="animable"></path><path d="M159.23,124.65s-.77,13.42,12.12,12.64" style="fill: none; stroke: rgb(38, 50, 56); stroke-linecap: round; stroke-linejoin: round; transform-origin: 165.286px 130.986px;" id="el3krgx5f7wzz" class="animable"></path><path d="M163.93,119.33s5.62,13.84,15.42,14.09" style="fill: none; stroke: rgb(38, 50, 56); stroke-linecap: round; stroke-linejoin: round; transform-origin: 171.64px 126.375px;" id="el5cj29qczqe" class="animable"></path><path d="M179.61,113.05s8,7.22,5.16,19.6" style="fill: none; stroke: rgb(38, 50, 56); stroke-linecap: round; stroke-linejoin: round; transform-origin: 182.495px 122.85px;" id="el78fcok4f8du" class="animable"></path><path d="M193.8,114.85s10.31,8,1.8,20.38" style="fill: none; stroke: rgb(38, 50, 56); stroke-linecap: round; stroke-linejoin: round; transform-origin: 196.383px 125.04px;" id="el8dmx5b7tpq2" class="animable"></path><path d="M203.86,140.39a16,16,0,0,0,3.86-11.87" style="fill: none; stroke: rgb(38, 50, 56); stroke-linecap: round; stroke-linejoin: round; transform-origin: 205.82px 134.455px;" id="el8k4vng17365" class="animable"></path></g></g><g id="freepik--character-3--inject-19" class="animable" style="transform-origin: 241.64px 320.575px;"><g style="clip-path: url(&quot;#freepik--clip-path-16--inject-19&quot;); transform-origin: 241.64px 320.575px;" id="el85eeiq970vf" class="animable"><path d="M205.56,246s-7.14,9.18-9.18,26.5.34,88,.34,88l91.36-5.28s-18.67-87.11-25.8-101.71-17.32-18.68-21.74-19S217.1,234.49,205.56,246Z" style="fill: rgb(38, 50, 56); stroke: rgb(38, 50, 56); stroke-linecap: round; stroke-linejoin: round; transform-origin: 241.817px 297.47px;" id="ele64r5fq5wz6" class="animable"></path><path d="M205.89,288.71s-7.31-4.29-7.31,1.82,4.94,11.55,7.32,12.23a3.64,3.64,0,0,0,4.75-2.38C211,298.68,205.89,288.71,205.89,288.71Z" style="fill: rgb(255, 255, 255); stroke: rgb(38, 50, 56); stroke-linecap: round; stroke-linejoin: round; transform-origin: 204.624px 295.116px;" id="elj0t66dv4cm" class="animable"></path><path d="M201.32,294.19s-1.22-3.66,1.82-3.35,4.27,4.56,4.27,4.56-3-1.21-3,.92a1.78,1.78,0,0,0,2.13,1.83" style="fill: none; stroke: rgb(38, 50, 56); stroke-linecap: round; stroke-linejoin: round; transform-origin: 204.244px 294.503px;" id="el81fhft0v4km" class="animable"></path><path d="M237.93,324s-46.2,26.83-52.65,29.21-16,54.34-16,54.34H314s-11.21-59.78-14.6-62.84S237.93,324,237.93,324Z" style="fill: rgb(255, 255, 255); stroke: rgb(38, 50, 56); stroke-linecap: round; stroke-linejoin: round; transform-origin: 241.64px 365.775px;" id="elm4nzjcapiv" class="animable"></path><path d="M289.58,381.87c-.18,1.3-.3,2.51-.36,3.6" style="fill: none; stroke: rgb(38, 50, 56); stroke-linecap: round; stroke-linejoin: round; transform-origin: 289.4px 383.67px;" id="elgq8q2umohe6" class="animable"></path><path d="M298.39,347.09s-5.51,17-8,30" style="fill: none; stroke: rgb(38, 50, 56); stroke-linecap: round; stroke-linejoin: round; transform-origin: 294.39px 362.09px;" id="el3x6zkpf3ni6" class="animable"></path><path d="M186.64,356.6s8.83,12.91,13.58,33.63" style="fill: none; stroke: rgb(38, 50, 56); stroke-linecap: round; stroke-linejoin: round; transform-origin: 193.43px 373.415px;" id="elrr8kqvgq5ms" class="animable"></path><path d="M220.2,335.9s-2.44,16.75-.61,25.58S222,373.35,222,373.35s8.22-7,13.1-10.35a45.18,45.18,0,0,1,11-5.18s3,0,7.61,3.66a121.8,121.8,0,0,1,10.05,9.44V353A57.63,57.63,0,0,0,261,335c-3.05-9.14-17.36-10.66-25.58-7.92S222.63,329.81,220.2,335.9Z" style="fill: rgb(255, 211, 1); transform-origin: 241.335px 349.601px;" id="el15k1b8k9y7x" class="animable"></path><path d="M230.11,320.26s-8.15,5.43-10.18,10.87,2,36,2,36,15.29-11.55,18.34-11.55a60.69,60.69,0,0,0,9.18-1.35s6.11,0,10.19,3.39a53.62,53.62,0,0,1,6.79,6.8s-1-26.16-4.76-37S239.29,314.82,230.11,320.26Z" style="fill: rgb(255, 255, 255); stroke: rgb(38, 50, 56); stroke-linecap: round; stroke-linejoin: round; transform-origin: 242.894px 342.201px;" id="elfumh8v5qdp7" class="animable"></path><path d="M223,308.37s3.4,14.95,7.47,27.51,15,32.27,16.65,28.2,6.79-28.2,6.79-36.69-2-24.11-2-24.11S242,315.84,223,308.37Z" style="fill: rgb(255, 255, 255); transform-origin: 238.455px 333.952px;" id="ellqsjlv1ji7l" class="animable"></path><g style="clip-path: url(&quot;#freepik--clip-path-17--inject-19&quot;); transform-origin: 238.415px 318.081px;" id="elcqw9ipj5esm" class="animable"><path d="M253.85,325.29c-.23-7.64-1.59-18.77-1.92-21.42l-.58,0c-2.23,2.37-11.83,11-28.37,4.52,0,0,2.05,9,4.87,18.92,3.67,3,9.3,6.06,15.93,4.61A17.61,17.61,0,0,0,253.85,325.29Z" style="fill: rgb(255, 211, 1); transform-origin: 238.415px 318.081px;" id="eltjavh0wn2o" class="animable"></path><g id="elj4zdpfbxa1"><path d="M253.85,325.29c-.23-7.64-1.59-18.77-1.92-21.42l-.58,0c-2.23,2.37-11.83,11-28.37,4.52,0,0,2.05,9,4.87,18.92,3.67,3,9.3,6.06,15.93,4.61A17.61,17.61,0,0,0,253.85,325.29Z" style="fill: rgb(255, 255, 255); opacity: 0.5; transform-origin: 238.415px 318.081px;" class="animable"></path></g></g><path d="M223,308.37s3.4,14.95,7.47,27.51,15,32.27,16.65,28.2,6.79-28.2,6.79-36.69-2-24.11-2-24.11S242,315.84,223,308.37Z" style="fill: none; stroke: rgb(38, 50, 56); stroke-linecap: round; stroke-linejoin: round; transform-origin: 238.455px 333.952px;" id="el990a6sojoqa" class="animable"></path><path d="M216.09,237.2s-11.55,3.74-16,21.06,6.11,38,14.95,47.55,19.36,18.69,29.21,16,20-23.44,17.32-50.95-10.53-33.29-21.06-36.34S216.09,237.2,216.09,237.2Z" style="fill: rgb(255, 255, 255); transform-origin: 230.522px 277.956px;" id="elomx7iq55gz" class="animable"></path><g style="clip-path: url(&quot;#freepik--clip-path-18--inject-19&quot;); transform-origin: 232.208px 271.905px;" id="el42xf5ramgq8" class="animable"><path d="M202.35,284.2q.32.89.66,1.77c6.12-4.82,22.63-19.5,18.74-35.06,0,0,21.57,32.44,38.17,47.39a82.57,82.57,0,0,0,1.68-27.47c-.15-1.48-.31-2.89-.49-4.25l-41.3-21.07Z" style="fill: rgb(255, 211, 1); transform-origin: 232.208px 271.905px;" id="elugflyz0a2j8" class="animable"></path><g id="elgqtrb3i2ne7"><path d="M202.35,284.2q.32.89.66,1.77c6.12-4.82,22.63-19.5,18.74-35.06,0,0,21.57,32.44,38.17,47.39a82.57,82.57,0,0,0,1.68-27.47c-.15-1.48-.31-2.89-.49-4.25l-41.3-21.07Z" style="fill: rgb(255, 255, 255); opacity: 0.5; transform-origin: 232.208px 271.905px;" class="animable"></path></g></g><path d="M216.09,237.2s-11.55,3.74-16,21.06,6.11,38,14.95,47.55,19.36,18.69,29.21,16,20-23.44,17.32-50.95-10.53-33.29-21.06-36.34S216.09,237.2,216.09,237.2Z" style="fill: none; stroke: rgb(38, 50, 56); stroke-linecap: round; stroke-linejoin: round; transform-origin: 230.522px 277.956px;" id="eltruwspfkcg" class="animable"></path><path d="M217.44,287.47c-.27,1.72,6.38-1.13,12.57,0C230,287.47,222.2,279.32,217.44,287.47Z" style="fill: rgb(38, 50, 56); transform-origin: 223.721px 285.942px;" id="elb1a405vf8n" class="animable"></path><path d="M252.85,281.1c.94,1.46-6.3,1.51-11.52,5C241.33,286.13,245.23,275.53,252.85,281.1Z" style="fill: rgb(38, 50, 56); transform-origin: 247.132px 282.791px;" id="el8wfhibi2u8j" class="animable"></path><path d="M240.2,279s-1,8.49.34,9.51,5.44,2.72,4.76,4.42-4.42,3.39-6.12,3.39" style="fill: none; stroke: rgb(38, 50, 56); stroke-linecap: round; stroke-linejoin: round; transform-origin: 242.278px 287.66px;" id="eld7omcsxtew" class="animable"></path><path d="M245,302.08s-2.38,3.4-8.83,2.72" style="fill: none; stroke: rgb(38, 50, 56); stroke-linecap: round; stroke-linejoin: round; transform-origin: 240.585px 303.485px;" id="elq3r2fleml2" class="animable"></path><path d="M228.31,276.94s-8.83-5.43-15.28,3.4" style="fill: none; stroke: rgb(38, 50, 56); stroke-linecap: round; stroke-linejoin: round; transform-origin: 220.67px 277.814px;" id="ele1lxda9swvw" class="animable"></path><path d="M239.52,275.58s.68-4.41,7.13-1.35" style="fill: none; stroke: rgb(38, 50, 56); stroke-linecap: round; stroke-linejoin: round; transform-origin: 243.085px 274.365px;" id="el7pn4803pu09" class="animable"></path><path d="M261.6,270.83c-2.72-27.51-10.53-33.29-21.06-36.34s-24.45,2.71-24.45,2.71-11.55,3.74-16,21.06c-2.3,9-.54,19,2.92,27.79,4.53-5.26,17.48-21.4,19.16-35.94,0,0,24.71,28.28,39.05,41.14A86,86,0,0,0,261.6,270.83Z" style="fill: rgb(38, 50, 56); stroke: rgb(38, 50, 56); stroke-linecap: round; stroke-linejoin: round; transform-origin: 230.542px 262.425px;" id="elonminv9g6h" class="animable"></path><path d="M222.87,245.67s27.63,14.75,45.6,43.72" style="fill: none; stroke: rgb(255, 255, 255); stroke-linecap: round; stroke-linejoin: round; transform-origin: 245.67px 267.53px;" id="elcl50x0gbs8c" class="animable"></path><line x1="262.3" y1="292.34" x2="277.32" y2="307.09" style="fill: none; stroke: rgb(255, 255, 255); stroke-linecap: round; stroke-linejoin: round; transform-origin: 269.81px 299.715px;" id="el6rlltz1tkl4" class="animable"></line><path d="M218.85,245.4s-4,26-21.19,32.72" style="fill: none; stroke: rgb(255, 255, 255); stroke-linecap: round; stroke-linejoin: round; transform-origin: 208.255px 261.76px;" id="eliuifl5duakc" class="animable"></path><path d="M224,242.45s24.4-2.95,38.08,14.75" style="fill: none; stroke: rgb(255, 255, 255); stroke-linecap: round; stroke-linejoin: round; transform-origin: 243.04px 249.733px;" id="elyd1hgx8vqj" class="animable"></path></g></g><defs>     <filter id="active" height="200%">         <feMorphology in="SourceAlpha" result="DILATED" operator="dilate" radius="2"></feMorphology>                <feFlood flood-color="#32DFEC" flood-opacity="1" result="PINK"></feFlood>        <feComposite in="PINK" in2="DILATED" operator="in" result="OUTLINE"></feComposite>        <feMerge>            <feMergeNode in="OUTLINE"></feMergeNode>            <feMergeNode in="SourceGraphic"></feMergeNode>        </feMerge>    </filter>    <filter id="hover" height="200%">        <feMorphology in="SourceAlpha" result="DILATED" operator="dilate" radius="2"></feMorphology>                <feFlood flood-color="#ff0000" flood-opacity="0.5" result="PINK"></feFlood>        <feComposite in="PINK" in2="DILATED" operator="in" result="OUTLINE"></feComposite>        <feMerge>            <feMergeNode in="OUTLINE"></feMergeNode>            <feMergeNode in="SourceGraphic"></feMergeNode>        </feMerge>            <feColorMatrix type="matrix" values="0   0   0   0   0                0   1   0   0   0                0   0   0   0   0                0   0   0   1   0 "></feColorMatrix>    </filter></defs><defs><clipPath id="freepik--clip-path--inject-19"><path d="M388.84,190.43a43.26,43.26,0,0,0,2.85-15.54c0-21.58-15.48-39.08-34.56-39.08s-34.44,17.37-34.56,38.84L258.14,251l93,37.91,40.69,16.58C406.85,266.71,405.21,225.78,388.84,190.43Z" style="fill:none"></path></clipPath><clipPath id="freepik--clip-path-2--inject-19"><path d="M334.11,246.92s.18-8.38.5-11.74c.38-3.94.34-15.44.34-15.44l25.52,3-2.35,22.16" style="fill:#fff;stroke:#263238;stroke-linecap:round;stroke-linejoin:round"></path></clipPath><clipPath id="freepik--clip-path-3--inject-19"><path d="M331.92,178.44s-.44,2.51-1,6.18c-1.15,7.82-2.74,20.91-1.37,26.39,2,8.06,10.08,24.85,14.11,26.52s18.46-8.05,23.5-13.76,10.07-32.57,10.07-32.57l-10.4.33.33-6-2,5.71-16.46-2.69.68-6.38-3.7,6.05-11.08-3v-5.37l-2.35,5.37Z" style="fill:#fff;stroke:#263238;stroke-linecap:round;stroke-linejoin:round"></path></clipPath><clipPath id="freepik--clip-path-4--inject-19"><path d="M378.93,185.15s-12.42,37.95-17.12,58.43-7.05,46.67-6.72,53,.67,6.38,5-1S377.93,255,381,236.86s7.38-47.68,7.38-54.73" style="fill:#FFD301;stroke:#263238;stroke-linecap:round;stroke-linejoin:round"></path></clipPath><clipPath id="freepik--clip-path-5--inject-19"><path d="M327.9,163.66s-8.4,27.87-14.78,52.39,9.4,82.59,12.76,79.91,1-86.29,3-94S333.6,167,333.6,167" style="fill:#FFD301;stroke:#263238;stroke-linecap:round;stroke-linejoin:round"></path></clipPath><clipPath id="freepik--clip-path-6--inject-19"><path d="M275.37,104.91c-19.73-3.48-40.4-2.66-61.59,2.56a149.06,149.06,0,0,0-18,5.65,27.47,27.47,0,0,0-43.73,26.46,147.6,147.6,0,0,0-46.86,143.55l110.55-27.21,31.69-7.8,25.67-30.4L342,136.19C321.65,119.6,299.2,109.12,275.37,104.91Z" style="fill:none"></path></clipPath><clipPath id="freepik--clip-path-7--inject-19"><path d="M155.36,227.57s8.13-32.65.52-78.15L212.11,144s8,62.16,17.28,81.51Z" style="fill:#fff;stroke:#263238;stroke-linecap:round;stroke-linejoin:round"></path></clipPath><clipPath id="freepik--clip-path-8--inject-19"><path d="M159.75,164.89s-2.07-5.67-5.42-4.12S153,171.6,156.39,176s8-1,8-1Z" style="fill:#fff;stroke:#263238;stroke-linecap:round;stroke-linejoin:round"></path></clipPath><clipPath id="freepik--clip-path-9--inject-19"><path d="M212.23,160.17s.6-6,4.23-5.34,3.93,10.18,1.77,15.26-8,1-8,1Z" style="fill:#fff;stroke:#263238;stroke-linecap:round;stroke-linejoin:round"></path></clipPath><clipPath id="freepik--clip-path-10--inject-19"><path d="M240.69,218.77c-5.16-5.16-15.48-1.29-23-2.06s-15.47-3.36-17-7.48S202,183.69,202,183.69l-12.38,2-12.38-2s2.83,21.41,1.29,25.54-9.55,6.7-17,7.48-17.8-3.1-22.95,2.06-7.23,67.84-7.23,67.84H247.91S245.85,223.93,240.69,218.77Z" style="fill:#fff;stroke:#263238;stroke-linecap:round;stroke-linejoin:round"></path></clipPath><clipPath id="freepik--clip-path-11--inject-19"><path d="M240.69,218.77c-5.16-5.16-15.48-1.29-23-2.06s-15.47-3.36-17-7.48S202,183.69,202,183.69l-12.38,2-12.38-2s2.83,21.41,1.29,25.54-9.55,6.7-17,7.48-17.8-3.1-22.95,2.06-7.23,67.84-7.23,67.84H247.91S245.85,223.93,240.69,218.77Z" style="opacity:0.1"></path></clipPath><clipPath id="freepik--clip-path-12--inject-19"><path d="M163.93,119.33l-.1.09c-12.83,10.71-11.43,29-5.52,43.05,3.35,7.93,6.55,15.53,11.27,22.71,5.93,9,15.45,17.37,25.25,14s18.83-29.41,18.57-49c-.15-11.26-4.51-23.67-13-31.43a25.3,25.3,0,0,0-16.59-6.44A32.73,32.73,0,0,0,163.93,119.33Z" style="fill:#fff;stroke:#263238;stroke-linecap:round;stroke-linejoin:round"></path></clipPath><clipPath id="freepik--clip-path-13--inject-19"><path d="M180.64,183s5.42,8.51,11.35,6.45,7.48-9,7.48-9A31.44,31.44,0,0,1,180.64,183Z" style="fill:#fff;stroke:#263238;stroke-linecap:round;stroke-linejoin:round"></path></clipPath><clipPath id="freepik--clip-path-14--inject-19"><path d="M180.64,183s11.35,2.58,18.83-2.58c0,0-4.38-1.29-6.45-1a5.44,5.44,0,0,0-3.35,2.06,15,15,0,0,0-4.64-1.29C183.22,180.11,180.64,183,180.64,183Z" style="fill:#fff;stroke:#263238;stroke-linecap:round;stroke-linejoin:round"></path></clipPath><clipPath id="freepik--clip-path-15--inject-19"><path d="M200.36,118.76a25.3,25.3,0,0,0-16.59-6.44,32.73,32.73,0,0,0-19.84,7l-.1.09c-12.54,10.47-11.48,28.23-5.9,42.11.66-4.7,3-15.47,11.1-22.17,10.58-8.77,21.15-7.23,28.38-3.36a34.29,34.29,0,0,1,15.91,18.38c.07-1.42.1-2.82.08-4.19C213.25,138.93,208.89,126.52,200.36,118.76Z" style="fill:#fff;stroke:#263238;stroke-linecap:round;stroke-linejoin:round"></path></clipPath><clipPath id="freepik--clip-path-16--inject-19"><path d="M271.54,266.31l-2.28-.93c.08-1,.13-1.95.13-2.93a39.54,39.54,0,1,0-77.94,9.4L105.12,293.1c12.43,47.14,42.92,81.79,88.34,100.3,75.72,30.86,162.3-4.86,194.43-79.67Z" style="fill:none"></path></clipPath><clipPath id="freepik--clip-path-17--inject-19"><path d="M223,308.37s3.4,14.95,7.47,27.51,15,32.27,16.65,28.2,6.79-28.2,6.79-36.69-2-24.11-2-24.11S242,315.84,223,308.37Z" style="fill:#fff;stroke:#263238;stroke-linecap:round;stroke-linejoin:round"></path></clipPath><clipPath id="freepik--clip-path-18--inject-19"><path d="M216.09,237.2s-11.55,3.74-16,21.06,6.11,38,14.95,47.55,19.36,18.69,29.21,16,20-23.44,17.32-50.95-10.53-33.29-21.06-36.34S216.09,237.2,216.09,237.2Z" style="fill:#fff;stroke:#263238;stroke-linecap:round;stroke-linejoin:round"></path></clipPath></defs></svg>