<?xml version="1.0" encoding="UTF-8" standalone="no"?><!-- Generator: Gravit.io --><svg xmlns="http://www.w3.org/2000/svg" xmlns:xlink="http://www.w3.org/1999/xlink" style="isolation:isolate" viewBox="102.572 0 85.355 69.817" width="85.355pt" height="69.817pt"><defs><clipPath id="_clipPath_5ZTcHjMnT6fUPC9zJIqYtAtkT1ozhHpI"><rect x="102.572" y="0" width="85.355" height="69.817"/></clipPath></defs><g clip-path="url(#_clipPath_5ZTcHjMnT6fUPC9zJIqYtAtkT1ozhHpI)"><g><path d=" M 124.485 27.013 L 151.219 11.578 L 114.511 28.774 L 114.782 29.234 L 124.485 27.013 Z " fill="rgb(158,84,55)"/><path d=" M 177.953 27.11 L 151.219 11.675 L 187.927 28.774 L 187.927 29.393 L 177.953 27.11 Z " fill="rgb(217,177,112)"/><path d=" M 151.219 69.817 L 124.489 54.385 L 124.489 26.492 L 151.219 41.925 L 151.219 69.817 Z " fill="rgb(185,117,75)"/><path d=" M 124.489 26.492 L 124.489 54.385 L 151.219 69.817 L 125.264 53.945 L 124.489 26.492 Z " fill="rgb(167,97,57)"/><path d=" M 135.718 60.958 L 135.718 32.975 L 139.964 35.426 L 139.964 63.649 L 135.718 60.958 Z " fill="rgb(158,84,55)"/><path d=" M 135.358 60.789 L 135.358 32.806 L 139.603 35.257 L 139.603 63.48 L 135.358 60.789 Z " fill="rgb(0,0,0)"/><path d=" M 151.219 69.817 L 177.95 54.385 L 177.95 26.492 L 151.219 41.925 L 151.219 69.817 Z " fill="rgb(217,177,112)"/><path d=" M 151.219 69.817 L 177.95 54.385 L 177.95 53.905 L 151.219 69.338 L 151.219 69.817 Z " fill="rgb(182,140,81)"/><path d=" M 152.804 64.501 L 160.418 60.101 L 160.418 53.739 L 152.946 57.734 L 152.804 58.14 L 152.804 64.501 Z " fill="rgb(158,84,55)"/><path d=" M 167.728 60.272 L 167.728 32.389 L 163.149 35.033 L 163.149 62.915 L 167.728 60.272 Z " fill="rgb(158,84,55)"/><path d=" M 167.902 60.376 L 167.902 32.285 L 163.323 34.929 L 163.323 63.019 L 167.902 60.376 Z " fill="rgb(0,0,0)"/><path d=" M 126.896 38.107 L 131.962 41.036 L 131.962 33.215 L 126.896 30.286 L 126.896 38.107 Z  M 132.533 42.024 L 126.325 38.437 L 126.325 29.298 L 132.533 32.886 L 132.533 42.024 Z " fill="rgb(144,79,53)"/><path d=" M 128.247 37.568 L 130.358 38.787 L 130.358 36.283 L 128.247 35.064 L 128.247 37.568 Z " fill="rgb(144,79,53)"/><path d=" M 127.217 34.489 L 131.387 36.897 L 129.302 32.535 L 127.217 34.489 Z " fill="rgb(144,79,53)"/><path d=" M 153.101 57.855 L 160.715 53.454 L 160.56 53.334 L 152.946 57.734 L 153.101 57.855 Z " fill="rgb(255,193,7)"/><path d=" M 153.101 64.217 L 153.101 57.855 L 152.946 57.734 L 152.946 64.096 L 153.101 64.217 Z " fill="rgb(255,193,7)"/><path d=" M 153.101 64.217 L 160.715 59.816 L 160.715 53.454 L 153.101 57.855 L 153.101 64.217 Z " fill="rgb(255,153,0)"/><path d=" M 153.527 58.721 L 160.289 54.813 L 160.289 54.409 L 153.527 58.318 L 153.527 58.721 Z " fill="rgb(0,0,0)"/><path d=" M 156.325 58.883 L 160.289 56.599 L 160.289 56.196 L 156.325 58.48 L 156.325 58.883 Z " fill="rgb(255,193,7)"/><path d=" M 153.553 63.166 L 155.619 61.973 L 155.619 58.551 L 153.553 59.744 L 153.553 63.166 Z " fill="rgb(0,0,0)"/><path d=" M 156.325 59.759 L 160.289 57.475 L 160.289 57.072 L 156.325 59.356 L 156.325 59.759 Z " fill="rgb(220,53,69)"/><path d=" M 156.325 60.635 L 160.289 58.351 L 160.289 57.948 L 156.325 60.232 L 156.325 60.635 Z " fill="rgb(4,57,39)"/><path d=" M 156.325 61.512 L 160.289 59.228 L 160.289 58.824 L 156.325 61.108 L 156.325 61.512 Z " fill="rgb(43,72,106)"/><path d=" M 124.485 26.492 L 151.219 11.057 L 141.246 13.339 L 114.511 28.774 L 124.485 26.492 Z " fill="rgb(217,177,112)"/><path d=" M 177.953 26.492 L 151.219 11.057 L 161.193 13.339 L 187.927 28.774 L 177.953 26.492 Z " fill="rgb(231,197,134)"/><path d=" M 151.219 41.927 L 124.485 26.492 L 151.219 11.057 L 177.953 26.492 L 151.219 41.927 Z " fill="rgb(238,217,152)"/><path d=" M 175.67 26.491 L 153.065 39.542 L 151.217 40.611 L 149.369 39.542 L 126.764 26.491 L 151.217 12.376 L 175.67 26.491 Z " fill="rgb(162,97,70)"/><path d=" M 144.985 54.24 L 118.251 38.805 L 118.009 38.275 L 151.219 41.925 L 151.219 42.815 L 144.985 54.24 Z " fill="rgb(217,177,112)"/><path d=" M 144.743 53.71 L 118.009 38.275 L 124.485 26.492 L 151.219 41.927 L 144.743 53.71 Z " fill="rgb(228,189,118)"/><path d=" M 177.95 43.39 L 177.95 42.017 L 177.952 42.015 L 177.953 43.388 L 177.95 43.39 Z " fill="rgb(215,157,138)"/><path d=" M 156.325 55.594 L 151.219 46.15 L 151.219 42.815 L 151.682 42.768 L 157.695 53.71 L 163.149 50.562 L 163.149 51.743 L 156.325 55.594 Z  M 167.902 49.061 L 167.902 47.818 L 177.95 42.017 L 177.95 43.39 L 167.902 49.061 Z " fill="rgb(184,112,68)"/><path d=" M 163.149 51.743 L 163.149 50.562 L 163.323 50.461 L 163.323 51.645 L 163.149 51.743 Z " fill="rgb(135,62,50)"/><path d=" M 163.323 51.645 L 163.323 50.461 L 167.902 47.818 L 167.902 49.061 L 163.323 51.645 Z " fill="rgb(0,0,0)"/><path d=" M 157.398 54.024 L 184.132 38.589 L 184.429 38.275 L 151.219 41.925 L 151.219 42.815 L 157.398 54.024 Z " fill="rgb(185,117,75)"/><path d=" M 157.695 53.71 L 184.429 38.275 L 177.953 26.492 L 151.219 41.927 L 157.695 53.71 Z " fill="rgb(251,229,154)"/><path d=" M 144.743 53.71 L 118.009 38.275 L 118.251 38.805 L 144.985 54.24 L 144.743 53.71 Z " fill="rgb(158,84,55)"/><path d=" M 151.219 12.374 L 151.219 40.609 L 126.766 26.492 L 151.219 12.374 Z " fill="rgb(209,162,109)"/><path d=" M 133.889 22.379 L 133.889 22.378 L 135.281 21.574 L 135.281 21.575 L 133.889 22.379 Z " fill="rgb(119,69,57)"/><path d=" M 142.034 35.306 L 133.889 30.604 L 133.889 22.379 L 135.281 21.575 L 135.281 29.735 L 143.522 34.493 L 142.034 35.306 Z " fill="rgb(151,106,78)"/><path d=" M 153.065 39.542 L 151.217 40.611 L 149.369 39.542 L 151.217 38.479 L 153.065 39.542 Z " fill="rgb(185,117,75)"/><path d=" M 151.217 40.611 L 144.476 36.717 L 149.369 39.542 L 151.217 40.611 L 153.065 39.542 L 175.67 26.491 L 151.217 40.611 Z " fill="rgb(172,139,104)"/><path d=" M 153.065 39.542 L 151.219 38.481 L 151.219 30.286 L 175.67 26.491 L 153.065 39.542 Z  M 149.369 39.542 L 149.369 39.542 L 144.476 36.717 L 142.072 35.329 L 149.37 39.542 L 149.369 39.542 Z " fill="rgb(119,69,57)"/><path d=" M 149.37 39.542 L 142.072 35.329 L 142.034 35.306 L 143.523 34.493 L 150.821 38.707 L 149.37 39.542 Z " fill="rgb(151,106,78)"/><path d=" M 151.217 40.611 L 149.369 39.542 L 149.37 39.542 L 150.821 38.707 L 151.219 38.937 L 151.219 38.481 L 153.065 39.542 L 151.217 40.611 Z " fill="rgb(135,81,59)"/><mask id="_mask_idyXA5mqchW8yQVuRx1eiuHJWNipzBSC"><path d=" M 151.219 38.937 L 135.281 29.735 L 135.281 9.202 L 151.219 18.403 L 151.219 38.937 Z " fill="white" stroke="none"/></mask><path d=" M 151.219 38.937 L 135.281 29.735 L 135.281 9.202 L 151.219 18.403 L 151.219 38.937 Z " fill="rgb(255,193,7)"/><path d=" M 151.219 38.937 L 135.281 29.735 L 135.281 9.202 L 151.219 18.403 L 151.219 38.937 Z " fill="rgb(255,193,7)" mask="url(#_mask_idyXA5mqchW8yQVuRx1eiuHJWNipzBSC)" vector-effect="non-scaling-stroke" stroke-width="0.2" stroke="rgb(255,153,0)" stroke-linejoin="miter" stroke-linecap="square" stroke-miterlimit="3"/><mask id="_mask_nXmUoQPMJiBIWaRDJ5aAbOeYNK93jjpP"><path d=" M 151.219 18.403 L 135.281 9.202 L 151.219 0 L 167.157 9.202 L 151.219 18.403 Z " fill="white" stroke="none"/></mask><path d=" M 151.219 18.403 L 135.281 9.202 L 151.219 0 L 167.157 9.202 L 151.219 18.403 Z " fill="rgb(255,193,7)"/><path d=" M 151.219 18.403 L 135.281 9.202 L 151.219 0 L 167.157 9.202 L 151.219 18.403 Z " fill="rgb(255,193,7)" mask="url(#_mask_nXmUoQPMJiBIWaRDJ5aAbOeYNK93jjpP)" vector-effect="non-scaling-stroke" stroke-width="0.2" stroke="rgb(255,153,0)" stroke-linejoin="miter" stroke-linecap="square" stroke-miterlimit="3"/><mask id="_mask_WnJVY9L8jUZTkVONf4NDIqfAFDnkyuLS"><path d=" M 151.219 38.937 L 167.157 29.735 L 167.157 9.202 L 151.219 18.403 L 151.219 38.937 Z " fill="white" stroke="none"/></mask><path d=" M 151.219 38.937 L 167.157 29.735 L 167.157 9.202 L 151.219 18.403 L 151.219 38.937 Z " fill="rgb(255,193,7)"/><path d=" M 151.219 38.937 L 167.157 29.735 L 167.157 9.202 L 151.219 18.403 L 151.219 38.937 Z " fill="rgb(255,193,7)" mask="url(#_mask_WnJVY9L8jUZTkVONf4NDIqfAFDnkyuLS)" vector-effect="non-scaling-stroke" stroke-width="0.2" stroke="rgb(255,153,0)" stroke-linejoin="miter" stroke-linecap="square" stroke-miterlimit="3"/><path d=" M 124.485 23.016 L 133.388 17.876 L 124.485 23.016 L 124.485 23.016 Z " fill="rgb(182,161,168)"/><path d=" M 124.485 23.016 L 133.388 17.876 L 135.281 16.783 L 135.281 20.258 L 132.865 21.653 L 124.485 23.016 Z " fill="rgb(157,115,80)"/><path d=" M 133.889 22.378 L 132.865 21.653 L 135.281 20.258 L 135.281 21.574 L 133.889 22.378 Z " fill="rgb(172,139,104)"/><path d=" M 133.889 22.378 L 133.889 22.378 L 135.281 21.574 L 135.281 21.574 L 133.889 22.378 Z " fill="rgb(119,69,57)"/><path d=" M 133.889 22.378 L 133.889 22.378 L 135.281 21.574 L 135.281 21.574 L 133.889 22.378 Z " fill="rgb(89,55,49)"/><path d=" M 135.281 21.574 L 135.281 21.574 L 135.281 21.574 L 135.281 20.258 L 135.281 16.783 L 135.281 21.574 Z " fill="rgb(142,126,131)"/><path d=" M 102.572 43.39 L 102.572 42.017 L 102.574 42.015 L 102.576 43.388 L 102.572 43.39 Z " fill="rgb(215,157,138)"/></g></g></svg>