<?xml version="1.0" encoding="UTF-8" standalone="no"?><!-- Generator: Gravit.io --><svg xmlns="http://www.w3.org/2000/svg" xmlns:xlink="http://www.w3.org/1999/xlink" style="isolation:isolate" viewBox="533.495 301.107 80 68.445" width="80pt" height="68.445pt"><defs><clipPath id="_clipPath_rI4CPcx78LkuGbLq3YQDQBp1KNeid1aF"><rect x="533.495" y="301.107" width="80" height="68.445"/></clipPath></defs><g clip-path="url(#_clipPath_rI4CPcx78LkuGbLq3YQDQBp1KNeid1aF)"><g><path d=" M 579.858 301.116 C 579.559 301.17 579.282 301.309 579.059 301.516 L 572.31 307.315 L 570.009 304.765 C 569.696 304.404 569.239 304.202 568.762 304.214 C 568.362 304.246 567.986 304.422 567.711 304.715 L 563.711 308.764 L 557.962 308.764 C 557.704 308.82 557.463 308.941 557.263 309.114 L 541.017 321.609 L 540.916 321.659 L 540.867 321.71 L 540.815 321.71 C 540.748 321.742 540.679 321.772 540.615 321.809 L 540.567 321.859 C 540.531 321.889 540.497 321.923 540.467 321.96 C 540.411 322.003 540.36 322.054 540.316 322.11 C 540.261 322.172 540.211 322.239 540.166 322.31 C 540.147 322.342 540.13 322.375 540.116 322.409 L 540.067 322.459 C 540.027 322.54 539.993 322.624 539.966 322.71 L 533.668 335.259 C 533.355 335.877 533.475 336.62 533.961 337.115 C 534.455 337.601 535.199 337.721 535.816 337.407 L 539.916 335.358 L 539.916 367.951 C 539.916 368.831 540.636 369.551 541.516 369.551 L 589.556 369.551 C 589.656 369.545 589.756 369.526 589.856 369.502 C 589.906 369.489 589.956 369.47 590.005 369.45 C 590.405 369.332 590.749 369.063 590.955 368.702 L 603.553 352.955 C 603.779 352.67 603.902 352.318 603.903 351.955 L 603.903 336.657 L 613.051 327.51 C 613.557 326.983 613.639 326.179 613.251 325.56 L 603.951 310.063 C 603.938 310.015 603.919 309.964 603.901 309.914 C 603.83 309.691 603.71 309.486 603.551 309.314 C 603.537 309.279 603.521 309.246 603.501 309.213 L 603.452 309.213 C 603.437 309.179 603.42 309.146 603.401 309.114 L 603.353 309.114 C 603.32 309.095 603.287 309.078 603.252 309.063 L 603.252 309.015 L 603.201 309.015 C 603.121 308.958 603.038 308.908 602.951 308.863 L 602.902 308.863 C 602.869 308.845 602.836 308.829 602.801 308.815 L 602.753 308.815 C 602.721 308.796 602.687 308.778 602.652 308.764 L 587.954 308.764 L 581.257 301.665 C 580.977 301.343 580.581 301.145 580.156 301.116 C 580.057 301.103 579.956 301.103 579.857 301.116 L 579.858 301.116 Z  M 580.007 304.915 L 592.357 318.012 L 588.804 321.561 L 584.955 321.561 C 584.912 321.505 584.862 321.455 584.806 321.411 L 574.408 309.714 L 580.007 304.915 Z  M 568.762 308.164 L 580.708 321.561 L 555.664 321.561 L 568.762 308.164 Z  M 558.762 311.963 L 560.61 311.963 L 551.162 321.561 L 546.214 321.561 L 558.762 311.963 Z  M 590.954 311.963 L 598.403 311.963 L 594.553 315.812 L 590.954 311.963 Z  M 602.003 312.963 L 609.9 326.061 L 599.402 336.558 L 591.504 323.46 L 602.003 312.963 Z  M 543.116 324.761 L 587.906 324.761 L 587.906 366.352 L 543.116 366.352 L 543.116 332.959 C 543.122 332.892 543.122 332.825 543.116 332.759 L 543.116 324.761 Z  M 591.106 328.86 L 597.754 339.957 C 598 340.385 598.43 340.675 598.918 340.744 C 599.407 340.812 599.9 340.651 600.254 340.308 L 600.704 339.857 L 600.704 351.406 L 591.106 363.404 L 591.106 328.86 Z  M 539.916 329.959 L 539.916 331.759 L 538.717 332.359 L 539.916 329.959 Z  M 557.063 331.159 C 556.182 331.284 555.563 332.103 555.688 332.983 C 555.814 333.864 556.631 334.483 557.513 334.359 L 573.509 334.359 C 574.085 334.365 574.621 334.064 574.915 333.565 C 575.203 333.066 575.203 332.452 574.915 331.953 C 574.621 331.454 574.084 331.153 573.509 331.159 L 557.063 331.159 Z " fill="rgb(255,153,0)"/><text transform="matrix(1,0,0,1,564.495,321.003)" style="font-family:'Open Sans';font-weight:700;font-size:14px;font-style:normal;fill:#000000;stroke:none;">0</text><text transform="matrix(1,0,0,1,577.906,318.178)" style="font-family:'Open Sans';font-weight:700;font-size:14px;font-style:normal;fill:#000000;stroke:none;">1</text></g></g></svg>