<?xml version="1.0" encoding="utf-8"?>
<svg id="master-artboard" viewBox="0 0 1400 980" version="1.1" xmlns="http://www.w3.org/2000/svg" x="0px" y="0px" style="enable-background:new 0 0 336 235.2;" width="1400px" height="980px"><defs><clipPath id="_clipPath_IR3sdNImeLGMU7nQU5beb7pwtzBhBURk"><path d="M 0 0 H 181.304993 V 183.046005 H 0 V 0 Z"/></clipPath></defs><g transform="matrix(5.353845327936914, 0, 0, 5.353845327936914, 214.66056525698997, 5.684341886080802e-14)"><g transform="matrix(1, 0, 0, 1, 0, 3.552713678800501e-15)"><path d=" M 52.241 60.3 C 52.151 60.3 52.06 60.269 51.988 60.206 C 51.827 60.066 51.809 59.822 51.949 59.661 C 58.521 52.081 67.077 46.668 76.69 44.007 C 76.897 43.947 77.108 44.071 77.165 44.276 C 77.223 44.482 77.102 44.694 76.896 44.751 C 67.43 47.372 59.005 52.702 52.533 60.167 C 52.456 60.255 52.349 60.3 52.241 60.3 Z " fill="rgb(0,129,161)"/><path d=" M 127.354 127.106 C 127.261 127.106 127.168 127.072 127.094 127.005 C 126.936 126.861 126.925 126.616 127.069 126.459 C 127.662 125.81 128.245 125.137 128.803 124.458 C 128.939 124.293 129.182 124.27 129.347 124.404 C 129.511 124.54 129.536 124.783 129.4 124.948 C 128.834 125.638 128.242 126.321 127.64 126.98 C 127.563 127.063 127.459 127.106 127.354 127.106 Z " fill="rgb(0,129,161)"/><path d=" M 119.023 134.424 C 118.901 134.424 118.781 134.367 118.706 134.26 C 118.583 134.085 118.626 133.844 118.801 133.722 C 120.301 132.672 121.759 131.527 123.136 130.318 C 123.295 130.178 123.539 130.193 123.681 130.353 C 123.822 130.513 123.806 130.757 123.645 130.898 C 122.248 132.126 120.767 133.289 119.244 134.355 C 119.177 134.402 119.099 134.424 119.023 134.424 Z  M 61.596 134.531 C 61.52 134.531 61.443 134.509 61.376 134.463 C 59.848 133.402 58.363 132.244 56.961 131.021 C 56.8 130.881 56.784 130.637 56.924 130.476 C 57.064 130.317 57.309 130.299 57.469 130.439 C 58.849 131.643 60.312 132.783 61.816 133.828 C 61.992 133.949 62.035 134.19 61.913 134.365 C 61.838 134.473 61.718 134.531 61.596 134.531 Z  M 109.29 139.742 C 109.138 139.742 108.994 139.652 108.932 139.503 C 108.851 139.305 108.946 139.08 109.143 138.999 C 110.838 138.303 112.511 137.506 114.118 136.628 C 114.305 136.524 114.539 136.594 114.642 136.782 C 114.745 136.969 114.676 137.204 114.488 137.306 C 112.857 138.197 111.157 139.007 109.436 139.714 C 109.389 139.733 109.339 139.742 109.29 139.742 Z  M 71.351 139.814 C 71.303 139.814 71.253 139.805 71.206 139.786 C 69.484 139.088 67.781 138.284 66.143 137.397 C 65.956 137.295 65.886 137.061 65.988 136.873 C 66.09 136.686 66.324 136.617 66.512 136.717 C 68.124 137.591 69.801 138.382 71.496 139.07 C 71.694 139.15 71.789 139.375 71.709 139.573 C 71.648 139.723 71.503 139.814 71.351 139.814 Z  M 98.627 142.783 C 98.442 142.783 98.278 142.65 98.246 142.461 C 98.211 142.25 98.353 142.051 98.563 142.016 C 100.37 141.712 102.178 141.304 103.937 140.802 C 104.147 140.743 104.356 140.863 104.414 141.068 C 104.473 141.273 104.354 141.486 104.149 141.545 C 102.362 142.054 100.526 142.469 98.691 142.778 C 98.67 142.781 98.648 142.783 98.627 142.783 Z  M 82.032 142.815 C 82.011 142.815 81.99 142.814 81.969 142.81 C 80.131 142.508 78.292 142.101 76.502 141.598 C 76.297 141.54 76.177 141.327 76.235 141.122 C 76.292 140.917 76.503 140.795 76.711 140.854 C 78.474 141.349 80.285 141.751 82.094 142.048 C 82.304 142.082 82.447 142.281 82.412 142.491 C 82.381 142.681 82.217 142.815 82.032 142.815 Z  M 90.232 143.481 C 89.331 143.481 88.424 143.457 87.535 143.41 C 87.322 143.399 87.158 143.217 87.169 143.004 C 87.18 142.791 87.365 142.61 87.576 142.638 C 89.387 142.734 91.257 142.731 93.088 142.628 C 93.321 142.617 93.484 142.778 93.495 142.991 C 93.507 143.205 93.345 143.387 93.132 143.399 C 92.171 143.453 91.195 143.481 90.232 143.481 Z " fill="rgb(0,129,161)"/><path d=" M 53.22 127.226 C 53.116 127.226 53.012 127.184 52.935 127.101 C 52.337 126.45 51.743 125.769 51.168 125.075 C 51.033 124.91 51.056 124.667 51.22 124.531 C 51.384 124.395 51.627 124.419 51.764 124.583 C 52.329 125.266 52.914 125.938 53.504 126.578 C 53.648 126.735 53.638 126.979 53.481 127.124 C 53.407 127.192 53.313 127.226 53.22 127.226 Z " fill="rgb(0,129,161)"/><path d=" M 127.628 59.626 C 127.523 59.626 127.417 59.583 127.341 59.498 C 121.546 53.05 114.158 48.204 105.977 45.485 C 105.774 45.418 105.665 45.199 105.732 44.997 C 105.799 44.794 106.019 44.685 106.22 44.752 C 114.529 47.513 122.031 52.434 127.915 58.981 C 128.058 59.14 128.045 59.384 127.887 59.527 C 127.813 59.593 127.721 59.626 127.628 59.626 Z " fill="rgb(0,129,161)"/><path d=" M 100.963 40.302 C 98.715 40.302 96.887 42.131 96.887 44.379 C 96.887 46.627 98.715 48.456 100.963 48.456 C 103.211 48.456 105.04 46.627 105.04 44.379 C 105.04 42.131 103.211 40.302 100.963 40.302 Z  M 100.963 49.229 C 98.289 49.229 96.114 47.053 96.114 44.379 C 96.114 41.705 98.289 39.53 100.963 39.53 C 103.638 39.53 105.813 41.705 105.813 44.379 C 105.813 47.053 103.638 49.229 100.963 49.229 Z " fill="rgb(0,129,161)"/><path d=" M 1.625 79.643 C 1.545 79.643 1.463 79.637 1.381 79.625 C 0.495 79.491 -0.115 78.664 0.018 77.778 C 0.621 73.784 1.496 69.796 2.618 65.925 C 6.886 51.213 14.902 37.675 25.801 26.776 C 26.434 26.142 27.463 26.142 28.097 26.776 C 28.73 27.41 28.73 28.438 28.097 29.072 C 17.583 39.585 9.851 52.641 5.736 66.829 C 4.654 70.563 3.81 74.409 3.228 78.262 C 3.107 79.066 2.415 79.643 1.625 79.643 Z " fill="rgb(0,129,161)"/><path d=" M 90.53 183.046 C 66.078 183.046 43.091 173.524 25.801 156.235 C 17.572 148.005 11.077 138.463 6.497 127.874 C 6.142 127.05 6.52 126.095 7.343 125.739 C 8.164 125.382 9.121 125.762 9.477 126.585 C 13.893 136.797 20.158 146.001 28.097 153.939 C 44.773 170.615 66.946 179.8 90.53 179.8 C 114.114 179.8 136.286 170.615 152.963 153.939 C 159.401 147.501 164.772 140.179 168.926 132.176 C 171.443 127.328 173.517 122.212 175.091 116.969 C 175.349 116.112 176.254 115.625 177.112 115.882 C 177.971 116.139 178.458 117.044 178.2 117.903 C 176.569 123.339 174.418 128.644 171.807 133.672 C 167.5 141.97 161.932 149.561 155.259 156.235 C 137.969 173.524 114.981 183.046 90.53 183.046 Z " fill="rgb(0,129,161)"/><path d=" M 179.68 81.381 C 178.877 81.381 178.179 80.785 178.072 79.968 C 175.528 60.553 166.846 42.953 152.963 29.072 C 152.329 28.438 152.329 27.41 152.963 26.776 C 153.597 26.142 154.625 26.142 155.259 26.776 C 169.651 41.168 178.653 59.416 181.291 79.546 C 181.408 80.435 180.781 81.25 179.892 81.366 C 179.821 81.376 179.75 81.381 179.68 81.381 Z " fill="rgb(0,129,161)"/><path d=" M 34.936 22.453 C 34.455 22.453 33.98 22.241 33.66 21.834 C 33.105 21.13 33.226 20.11 33.931 19.555 C 34.795 18.874 35.672 18.208 36.561 17.558 C 37.286 17.03 38.301 17.187 38.83 17.91 C 39.358 18.634 39.201 19.65 38.477 20.179 C 37.619 20.806 36.773 21.448 35.939 22.105 C 35.642 22.34 35.288 22.453 34.936 22.453 Z " fill="rgb(0,129,161)"/><path d=" M 81.219 3.687 C 80.397 3.687 79.692 3.065 79.606 2.23 C 79.515 1.338 80.163 0.541 81.055 0.449 C 83.327 0.216 85.639 0.065 87.928 0.001 C 88.817 -0.03 89.571 0.681 89.596 1.578 C 89.62 2.474 88.914 3.221 88.018 3.246 C 85.81 3.307 83.579 3.453 81.387 3.678 C 81.33 3.684 81.275 3.687 81.219 3.687 Z  M 101.489 3.872 C 101.424 3.872 101.358 3.868 101.291 3.86 C 99.105 3.594 96.876 3.408 94.667 3.306 C 93.771 3.265 93.079 2.506 93.12 1.61 C 93.161 0.714 93.918 0.015 94.816 0.063 C 97.106 0.169 99.416 0.362 101.683 0.637 C 102.573 0.746 103.207 1.555 103.099 2.444 C 102.998 3.268 102.298 3.872 101.489 3.872 Z  M 67.911 6.079 C 67.188 6.079 66.53 5.594 66.34 4.863 C 66.115 3.995 66.637 3.11 67.504 2.884 C 69.72 2.31 71.984 1.814 74.233 1.41 C 75.118 1.252 75.96 1.838 76.118 2.721 C 76.277 3.604 75.69 4.447 74.807 4.606 C 72.638 4.995 70.455 5.473 68.319 6.027 C 68.182 6.063 68.045 6.079 67.911 6.079 Z  M 114.755 6.511 C 114.61 6.511 114.464 6.492 114.318 6.451 C 112.192 5.859 110.017 5.34 107.854 4.909 C 106.974 4.734 106.404 3.88 106.579 3 C 106.754 2.121 107.61 1.547 108.488 1.725 C 110.731 2.172 112.986 2.71 115.19 3.324 C 116.054 3.565 116.558 4.461 116.317 5.324 C 116.117 6.042 115.465 6.511 114.755 6.511 Z  M 55.118 10.453 C 54.488 10.453 53.889 10.085 53.625 9.469 C 53.271 8.646 53.653 7.691 54.477 7.338 C 56.58 6.436 58.744 5.604 60.907 4.864 C 61.757 4.576 62.678 5.027 62.968 5.875 C 63.258 6.723 62.805 7.646 61.956 7.936 C 59.871 8.649 57.785 9.452 55.756 10.321 C 55.548 10.411 55.331 10.453 55.118 10.453 Z  M 127.468 11.125 C 127.245 11.125 127.018 11.078 126.802 10.981 C 124.789 10.073 122.718 9.231 120.645 8.479 C 119.803 8.173 119.368 7.242 119.673 6.4 C 119.978 5.556 120.911 5.12 121.753 5.427 C 123.902 6.207 126.049 7.08 128.137 8.022 C 128.954 8.39 129.317 9.351 128.949 10.169 C 128.678 10.769 128.087 11.125 127.468 11.125 Z  M 43.127 16.707 C 42.585 16.707 42.055 16.435 41.747 15.941 C 41.274 15.179 41.508 14.178 42.269 13.705 C 44.213 12.496 46.226 11.348 48.253 10.291 C 49.049 9.876 50.028 10.185 50.443 10.98 C 50.857 11.775 50.549 12.755 49.754 13.17 C 47.8 14.189 45.858 15.297 43.983 16.462 C 43.716 16.628 43.42 16.707 43.127 16.707 Z " fill="rgb(0,129,161)"/><path d=" M 136.376 15.762 C 136.094 15.762 135.808 15.688 135.549 15.534 C 134.637 14.992 133.714 14.466 132.781 13.957 C 131.995 13.528 131.704 12.542 132.134 11.755 C 132.564 10.968 133.55 10.678 134.337 11.108 C 135.304 11.635 136.261 12.181 137.207 12.743 C 137.977 13.201 138.231 14.197 137.773 14.968 C 137.47 15.478 136.93 15.762 136.376 15.762 Z " fill="rgb(0,129,161)"/><path d=" M 142.15 15.212 C 140.459 15.212 139.084 16.588 139.084 18.278 C 139.084 19.969 140.459 21.345 142.15 21.345 C 143.841 21.345 145.217 19.969 145.217 18.278 C 145.217 16.588 143.841 15.212 142.15 15.212 Z  M 142.15 24.591 C 138.669 24.591 135.838 21.759 135.838 18.278 C 135.838 14.797 138.669 11.966 142.15 11.966 C 145.631 11.966 148.463 14.797 148.463 18.278 C 148.463 21.759 145.631 24.591 142.15 24.591 Z " fill="rgb(0,129,161)"/><path d=" M 161.677 126.156 C 161.608 126.156 161.537 126.141 161.471 126.11 C 161.226 125.996 161.12 125.705 161.234 125.461 C 161.616 124.645 161.982 123.821 162.336 122.991 C 162.441 122.743 162.728 122.627 162.977 122.733 C 163.225 122.839 163.341 123.126 163.235 123.374 C 162.877 124.215 162.505 125.048 162.12 125.874 C 162.037 126.051 161.861 126.156 161.677 126.156 Z " fill="rgb(255,211,1)"/><path d=" M 156.576 135.399 C 156.486 135.399 156.394 135.374 156.312 135.321 C 156.085 135.175 156.02 134.873 156.165 134.646 C 157.107 133.181 158.012 131.665 158.854 130.139 C 158.984 129.903 159.282 129.816 159.517 129.947 C 159.754 130.077 159.84 130.374 159.709 130.611 C 158.857 132.156 157.941 133.692 156.988 135.174 C 156.894 135.32 156.737 135.399 156.576 135.399 Z  M 26.468 139.085 C 26.317 139.085 26.168 139.015 26.072 138.883 C 25.034 137.452 24.032 135.971 23.097 134.481 C 22.953 134.253 23.022 133.951 23.25 133.808 C 23.479 133.665 23.781 133.733 23.924 133.962 C 24.848 135.433 25.837 136.896 26.863 138.309 C 27.021 138.528 26.973 138.833 26.755 138.992 C 26.668 139.055 26.568 139.085 26.468 139.085 Z  M 150.287 143.877 C 150.175 143.877 150.063 143.839 149.971 143.76 C 149.766 143.586 149.741 143.277 149.915 143.072 C 151.044 141.746 152.142 140.363 153.181 138.964 C 153.343 138.747 153.648 138.703 153.865 138.862 C 154.081 139.023 154.127 139.329 153.966 139.546 C 152.914 140.963 151.802 142.362 150.66 143.705 C 150.563 143.819 150.426 143.877 150.287 143.877 Z  M 33.225 147.195 C 33.096 147.195 32.967 147.144 32.872 147.043 C 31.654 145.765 30.465 144.431 29.336 143.076 C 29.164 142.869 29.192 142.561 29.399 142.388 C 29.607 142.214 29.915 142.244 30.087 142.451 C 31.202 143.789 32.376 145.107 33.579 146.369 C 33.765 146.564 33.757 146.873 33.562 147.059 C 33.468 147.15 33.346 147.195 33.225 147.195 Z  M 142.927 151.443 C 142.793 151.443 142.66 151.388 142.563 151.281 C 142.383 151.08 142.399 150.772 142.6 150.591 C 143.895 149.426 145.168 148.202 146.383 146.953 C 146.571 146.759 146.88 146.756 147.074 146.944 C 147.267 147.132 147.271 147.442 147.083 147.635 C 145.853 148.899 144.565 150.138 143.253 151.318 C 143.16 151.402 143.043 151.443 142.927 151.443 Z  M 40.999 154.334 C 40.893 154.334 40.785 154.299 40.694 154.226 C 39.317 153.122 37.961 151.957 36.663 150.765 C 36.464 150.583 36.451 150.274 36.634 150.075 C 36.816 149.875 37.125 149.864 37.324 150.046 C 38.606 151.223 39.946 152.373 41.306 153.465 C 41.516 153.633 41.55 153.941 41.381 154.151 C 41.285 154.271 41.143 154.334 40.999 154.334 Z  M 134.626 157.964 C 134.47 157.964 134.317 157.889 134.223 157.751 C 134.07 157.528 134.128 157.224 134.35 157.072 C 135.786 156.092 137.21 155.048 138.583 153.969 C 138.796 153.802 139.103 153.84 139.269 154.052 C 139.436 154.264 139.399 154.571 139.187 154.738 C 137.796 155.83 136.354 156.887 134.901 157.879 C 134.817 157.936 134.721 157.964 134.626 157.964 Z  M 49.656 160.376 C 49.57 160.376 49.483 160.353 49.404 160.305 C 47.897 159.397 46.398 158.424 44.948 157.412 C 44.726 157.257 44.672 156.953 44.826 156.732 C 44.981 156.511 45.286 156.458 45.506 156.611 C 46.939 157.61 48.42 158.571 49.908 159.468 C 50.14 159.608 50.214 159.908 50.075 160.139 C 49.983 160.291 49.821 160.376 49.656 160.376 Z  M 125.529 163.318 C 125.35 163.318 125.178 163.219 125.092 163.049 C 124.971 162.807 125.069 162.513 125.309 162.393 C 126.868 161.611 128.418 160.767 129.919 159.883 C 130.152 159.745 130.451 159.825 130.588 160.056 C 130.725 160.289 130.647 160.589 130.415 160.725 C 128.895 161.62 127.325 162.475 125.748 163.266 C 125.678 163.301 125.603 163.318 125.529 163.318 Z  M 59.043 165.205 C 58.978 165.205 58.912 165.192 58.849 165.165 C 57.228 164.465 55.611 163.7 54.044 162.894 C 53.805 162.77 53.71 162.475 53.833 162.236 C 53.958 161.996 54.251 161.903 54.492 162.025 C 56.039 162.821 57.636 163.576 59.237 164.268 C 59.484 164.375 59.599 164.663 59.491 164.91 C 59.412 165.095 59.232 165.205 59.043 165.205 Z  M 115.796 167.404 C 115.593 167.404 115.403 167.277 115.334 167.073 C 115.246 166.819 115.382 166.541 115.638 166.453 C 117.286 165.888 118.937 165.259 120.542 164.586 C 120.79 164.481 121.078 164.599 121.182 164.847 C 121.286 165.096 121.169 165.382 120.92 165.487 C 119.295 166.169 117.624 166.805 115.954 167.377 C 115.902 167.395 115.848 167.404 115.796 167.404 Z  M 68.994 168.729 C 68.95 168.729 68.906 168.723 68.862 168.711 C 67.161 168.235 65.457 167.695 63.796 167.107 C 63.541 167.017 63.408 166.737 63.498 166.483 C 63.588 166.229 63.868 166.095 64.122 166.186 C 65.763 166.767 67.446 167.299 69.125 167.769 C 69.385 167.842 69.536 168.111 69.464 168.371 C 69.404 168.588 69.207 168.729 68.994 168.729 Z  M 105.602 170.141 C 105.374 170.141 105.169 169.979 105.123 169.747 C 105.071 169.482 105.244 169.225 105.508 169.173 C 107.218 168.836 108.937 168.436 110.619 167.984 C 110.88 167.912 111.147 168.069 111.217 168.329 C 111.287 168.59 111.133 168.858 110.872 168.927 C 109.17 169.385 107.429 169.79 105.698 170.132 C 105.665 170.137 105.634 170.141 105.602 170.141 Z  M 79.328 170.881 C 79.305 170.881 79.283 170.879 79.26 170.876 C 77.512 170.632 75.75 170.327 74.024 169.968 C 73.76 169.913 73.591 169.654 73.645 169.39 C 73.701 169.126 73.957 168.958 74.224 169.011 C 75.928 169.366 77.668 169.668 79.394 169.908 C 79.661 169.945 79.848 170.192 79.811 170.459 C 79.777 170.703 79.568 170.881 79.328 170.881 Z  M 95.133 171.485 C 94.877 171.485 94.662 171.285 94.646 171.026 C 94.63 170.757 94.835 170.525 95.104 170.508 C 96.84 170.403 98.598 170.237 100.328 170.015 C 100.592 169.977 100.841 170.17 100.875 170.438 C 100.91 170.705 100.72 170.95 100.453 170.984 C 98.701 171.209 96.921 171.377 95.163 171.484 C 95.153 171.485 95.143 171.485 95.133 171.485 Z  M 89.855 171.632 C 89.854 171.632 89.854 171.632 89.853 171.632 C 88.084 171.624 86.298 171.555 84.544 171.43 C 84.275 171.411 84.073 171.177 84.092 170.908 C 84.111 170.639 84.344 170.433 84.614 170.456 C 86.346 170.579 88.11 170.647 89.858 170.655 C 90.128 170.656 90.345 170.876 90.344 171.146 C 90.343 171.415 90.124 171.632 89.855 171.632 Z " fill="rgb(255,211,1)"/><path d=" M 20.827 130.098 C 20.653 130.098 20.484 130.005 20.396 129.841 C 19.965 129.038 19.547 128.227 19.142 127.407 C 19.022 127.166 19.122 126.873 19.364 126.753 C 19.605 126.634 19.899 126.733 20.018 126.975 C 20.418 127.784 20.831 128.585 21.257 129.378 C 21.385 129.616 21.295 129.912 21.058 130.04 C 20.984 130.079 20.905 130.098 20.827 130.098 Z " fill="rgb(255,211,1)"/><path d=" M 90.263 171.633 C 77.319 171.633 64.475 168.445 53.121 162.411 C 52.883 162.284 52.792 161.989 52.918 161.751 C 53.045 161.512 53.34 161.421 53.579 161.548 C 64.793 167.507 77.478 170.656 90.263 170.656 C 121.006 170.656 149.036 152.541 161.673 124.505 C 161.784 124.259 162.072 124.148 162.319 124.26 C 162.565 124.371 162.674 124.66 162.563 124.906 C 149.769 153.292 121.389 171.633 90.263 171.633 Z " fill="rgb(255,211,1)"/><path d=" M 161.777 59.77 C 161.592 59.77 161.415 59.665 161.333 59.486 C 148.549 31.902 120.653 14.078 90.263 14.078 C 76.737 14.078 63.406 17.582 51.709 24.212 C 51.475 24.346 51.176 24.262 51.044 24.028 C 50.911 23.794 50.993 23.495 51.228 23.362 C 63.07 16.649 76.568 13.1 90.263 13.1 C 121.032 13.1 149.276 31.147 162.22 59.075 C 162.333 59.32 162.226 59.611 161.982 59.724 C 161.915 59.755 161.845 59.77 161.777 59.77 Z " fill="rgb(255,211,1)"/><g><path d=" M 18.639 102.525 C 13.143 107.827 14.521 116.471 14.739 117.663 C 18.651 120.685 21.936 118.256 22.567 117.727 C 23.803 107.68 19.7 103.438 18.639 102.525 Z  M 17.696 102.354 C 17.904 102.134 18.122 101.92 18.351 101.71 C 18.486 101.587 18.687 101.573 18.839 101.674 C 19.086 101.841 24.874 105.893 23.333 117.976 C 23.321 118.067 23.281 118.15 23.21 118.215 C 23.168 118.254 18.973 122.052 14.132 118.192 C 14.061 118.135 14.012 118.055 13.993 117.966 C 13.971 117.867 12.015 108.344 17.696 102.354 Z " fill="rgb(255,211,1)"/><path d=" M 15.247 118.424 C 15.296 118.372 15.366 118.34 15.443 118.34 C 15.593 118.34 15.715 118.461 15.715 118.61 C 15.718 119.843 15.387 120.781 15.217 121.18 C 17.797 123.062 21.189 121.656 22.089 121.225 C 21.684 120.341 21.483 119.526 21.474 118.74 C 21.473 118.59 21.594 118.467 21.743 118.466 C 21.893 118.464 22.015 118.584 22.017 118.734 C 22.026 119.508 22.247 120.324 22.691 121.228 C 22.755 121.357 22.706 121.514 22.58 121.585 C 22.395 121.688 17.995 124.096 14.71 121.477 C 14.608 121.396 14.579 121.254 14.639 121.138 C 14.644 121.128 15.176 120.091 15.173 118.612 C 15.172 118.539 15.201 118.473 15.247 118.424 Z " fill="rgb(255,211,1)"/><path d=" M 20.471 109.473 L 20.464 109.48 L 20.471 109.473 Z  M 19.681 110.454 C 19.934 110.188 20.073 109.84 20.075 109.471 L 20.075 109.471 C 20.077 109.087 19.93 108.725 19.659 108.452 C 19.388 108.178 19.028 108.027 18.643 108.025 C 18.259 108.023 17.896 108.171 17.623 108.441 C 17.338 108.717 17.198 109.073 17.197 109.457 C 17.195 109.841 17.342 110.204 17.613 110.477 C 17.884 110.75 18.244 110.902 18.629 110.904 C 19.013 110.906 19.376 110.758 19.648 110.487 C 19.66 110.476 19.671 110.465 19.681 110.454 Z  M 17.017 107.931 C 17.033 107.913 17.05 107.896 17.067 107.879 C 17.49 107.46 18.051 107.231 18.647 107.234 C 19.243 107.237 19.801 107.472 20.221 107.895 C 20.64 108.318 20.869 108.88 20.866 109.475 C 20.863 110.071 20.637 110.636 20.205 111.049 C 19.782 111.468 19.22 111.697 18.625 111.694 C 18.029 111.691 17.471 111.457 17.051 111.033 C 16.632 110.61 16.403 110.049 16.406 109.453 C 16.409 108.881 16.625 108.344 17.017 107.931 Z " fill="rgb(255,211,1)"/><path d=" M 12.114 112.396 C 12.977 111.486 13.76 110.987 13.834 110.94 C 14.019 110.825 14.263 110.881 14.379 111.066 C 14.494 111.251 14.434 111.496 14.254 111.611 C 14.216 111.634 10.739 113.858 10.526 117.616 C 11.875 117.026 13.727 116.332 14.339 116.655 C 14.505 116.743 14.613 116.89 14.643 117.07 C 14.679 117.285 14.534 117.489 14.319 117.525 C 14.158 117.553 14.003 117.478 13.921 117.349 C 13.443 117.309 11.708 117.936 10.29 118.588 C 10.17 118.643 10.03 118.635 9.918 118.565 C 9.805 118.496 9.734 118.375 9.729 118.243 C 9.633 115.61 10.947 113.627 12.114 112.396 Z " fill="rgb(255,211,1)"/><path d=" M 23.324 111.051 C 23.451 110.917 23.66 110.887 23.823 110.991 C 23.996 111.101 28.069 113.755 27.855 118.333 C 27.848 118.466 27.776 118.585 27.664 118.653 C 27.551 118.722 27.411 118.729 27.291 118.672 C 25.88 118.007 24.151 117.363 23.674 117.397 C 23.588 117.525 23.434 117.599 23.273 117.57 C 23.058 117.532 22.915 117.327 22.953 117.111 C 22.986 116.931 23.095 116.786 23.261 116.7 C 23.876 116.382 25.722 117.095 27.065 117.698 C 26.889 113.941 23.434 111.68 23.397 111.657 C 23.213 111.539 23.16 111.294 23.277 111.111 C 23.291 111.089 23.307 111.07 23.324 111.051 Z " fill="rgb(255,211,1)"/></g><mask id="_mask_zS2q0RUdlccJpZ72N6yKCHVFak1Nx4PX" x="-200%" y="-200%" width="400%" height="400%"><path d="M -362.609985 -366.09198 H 362.609985 V 366.09198 H -362.609985 V -366.09198 Z" style="fill:white;"/><path d=" M 59.194 30.677 C 84.948 17.669 117.186 21.922 138.7 43.436 C 143.436 48.173 147.336 53.428 150.399 59.021" fill="black" stroke="none"/></mask><path d=" M 59.194 30.677 C 84.948 17.669 117.186 21.922 138.7 43.436 C 143.436 48.173 147.336 53.428 150.399 59.021" fill="none"/><path d=" M 59.194 30.677 C 84.948 17.669 117.186 21.922 138.7 43.436 C 143.436 48.173 147.336 53.428 150.399 59.021" fill="none" mask="url(#_mask_zS2q0RUdlccJpZ72N6yKCHVFak1Nx4PX)" vector-effect="non-scaling-stroke" stroke-width="4.12" stroke="rgb(0,129,161)" stroke-opacity="100" stroke-linejoin="bevel" stroke-linecap="round" stroke-miterlimit="10" style="stroke-width: 2;"/><mask id="_mask_O1j7MgOLSafI0BgpAfaYfvdZcW5yp8nr" x="-200%" y="-200%" width="400%" height="400%"><path d="M -362.609985 -366.09198 H 362.609985 V 366.09198 H -362.609985 V -366.09198 Z" style="fill:white;"/><path d=" M 29.635 59.503 C 31.478 56.072 33.634 52.765 36.103 49.624" fill="black" stroke="none"/></mask><path d=" M 29.635 59.503 C 31.478 56.072 33.634 52.765 36.103 49.624" fill="none"/><path d=" M 29.635 59.503 C 31.478 56.072 33.634 52.765 36.103 49.624" fill="none" mask="url(#_mask_O1j7MgOLSafI0BgpAfaYfvdZcW5yp8nr)" vector-effect="non-scaling-stroke" stroke-width="4.12" stroke="rgb(0,129,161)" stroke-opacity="100" stroke-linejoin="bevel" stroke-linecap="round" stroke-miterlimit="10" style="stroke-width: 2;"/><mask id="_mask_cwEfDkbl9jTpuFuCZAUEbyiTsoo4uZLQ" x="-200%" y="-200%" width="400%" height="400%"><path d="M -362.609985 -366.09198 H 362.609985 V 366.09198 H -362.609985 V -366.09198 Z" style="fill:white;"/><path d=" M 138.7 140.541 C 134.878 144.363 130.717 147.64 126.314 150.373 C 99.83 166.811 64.588 163.533 41.596 140.541 C 37.589 136.534 34.181 132.156 31.372 127.517" fill="black" stroke="none"/></mask><path d=" M 138.7 140.541 C 134.878 144.363 130.717 147.64 126.314 150.373 C 99.83 166.811 64.588 163.533 41.596 140.541 C 37.589 136.534 34.181 132.156 31.372 127.517" fill="none"/><path d=" M 138.7 140.541 C 134.878 144.363 130.717 147.64 126.314 150.373 C 99.83 166.811 64.588 163.533 41.596 140.541 C 37.589 136.534 34.181 132.156 31.372 127.517" fill="none" mask="url(#_mask_cwEfDkbl9jTpuFuCZAUEbyiTsoo4uZLQ)" vector-effect="non-scaling-stroke" stroke-width="4.12" stroke="rgb(0,129,161)" stroke-opacity="100" stroke-linejoin="bevel" stroke-linecap="round" stroke-miterlimit="10" style="stroke-width: 2;"/><mask id="_mask_W1txkwTjKGV83TklUmLAndsEE2oRsqYn" x="-200%" y="-200%" width="400%" height="400%"><path d="M -362.609985 -366.09198 H 362.609985 V 366.09198 H -362.609985 V -366.09198 Z" style="fill:white;"/><path d=" M 145.012 140.541 C 143.269 142.284 140.443 142.284 138.7 140.541 C 136.957 138.798 136.957 135.972 138.7 134.229 C 140.443 132.486 143.269 132.486 145.012 134.229 C 146.755 135.972 146.755 138.798 145.012 140.541 Z " fill="black" stroke="none"/></mask><path d=" M 145.012 140.541 C 143.269 142.284 140.443 142.284 138.7 140.541 C 136.957 138.798 136.957 135.972 138.7 134.229 C 140.443 132.486 143.269 132.486 145.012 134.229 C 146.755 135.972 146.755 138.798 145.012 140.541 Z " fill="none"/><path d=" M 145.012 140.541 C 143.269 142.284 140.443 142.284 138.7 140.541 C 136.957 138.798 136.957 135.972 138.7 134.229 C 140.443 132.486 143.269 132.486 145.012 134.229 C 146.755 135.972 146.755 138.798 145.012 140.541 Z " fill="none" mask="url(#_mask_W1txkwTjKGV83TklUmLAndsEE2oRsqYn)" vector-effect="non-scaling-stroke" stroke-width="4.12" stroke="rgb(0,129,161)" stroke-opacity="100" stroke-linejoin="bevel" stroke-linecap="round" stroke-miterlimit="10" style="stroke-width: 2;"/><mask id="_mask_EDBuKBJFQcYzEUct4f6tKf87Jags0QUx" x="-200%" y="-200%" width="400%" height="400%"><path d="M -362.609985 -366.09198 H 362.609985 V 366.09198 H -362.609985 V -366.09198 Z" style="fill:white;"/><path d=" M 148.022 138.586 C 149.94 140.071 150.63 140.991 150.332 141.506 C 149.836 142.366 145.663 140.887 141.012 138.202 C 136.361 135.517 132.994 132.642 133.491 131.782 C 133.781 131.278 135.7 131.798 137.969 132.731" fill="black" stroke="none"/></mask><path d=" M 148.022 138.586 C 149.94 140.071 150.63 140.991 150.332 141.506 C 149.836 142.366 145.663 140.887 141.012 138.202 C 136.361 135.517 132.994 132.642 133.491 131.782 C 133.781 131.278 135.7 131.798 137.969 132.731" fill="none"/><path d=" M 148.022 138.586 C 149.94 140.071 150.63 140.991 150.332 141.506 C 149.836 142.366 145.663 140.887 141.012 138.202 C 136.361 135.517 132.994 132.642 133.491 131.782 C 133.781 131.278 135.7 131.798 137.969 132.731" fill="none" mask="url(#_mask_EDBuKBJFQcYzEUct4f6tKf87Jags0QUx)" vector-effect="non-scaling-stroke" stroke-width="1.166" stroke="rgb(255,211,1)" stroke-opacity="100" stroke-linejoin="bevel" stroke-linecap="round" stroke-miterlimit="10"/><path d=" M 39.684 27.483 L 37.057 30.785 L 39.529 32.386 L 39.529 41.992 L 54.357 41.992 L 54.357 32.386 L 56.829 30.785 L 54.202 27.483 L 51.886 28.384 L 47.998 28.384 L 47.586 27.884 C 47.414 27.671 47.143 27.558 46.865 27.583 C 46.643 27.604 46.438 27.713 46.3 27.884 L 45.888 28.384 L 42 28.384 L 39.684 27.483 Z  M 46.943 29.66 L 48.513 31.586 L 45.373 31.586 L 46.943 29.66 Z  M 42.875 29.985 L 44.574 29.985 L 43.261 31.586 L 42.824 31.586 L 42.824 30.06 L 42.875 29.985 Z  M 49.311 29.985 L 51.011 29.985 L 51.062 30.06 L 51.062 31.586 L 50.624 31.586 L 49.311 29.985 Z  M 41.176 33.187 L 52.71 33.187 L 52.71 40.391 L 41.176 40.391 L 41.176 33.187 Z  M 44.471 34.788 L 44.471 36.388 L 49.414 36.388 L 49.414 34.788 L 44.471 34.788 Z " fill="rgb(0,129,161)"/><path d=" M 152.663 64.216 C 152.596 64.229 152.534 64.255 152.482 64.294 L 148.244 67.093 L 148.231 67.105 L 148.217 67.105 C 148.185 67.12 148.154 67.139 148.127 67.16 L 148.114 67.171 C 148.105 67.175 148.096 67.178 148.088 67.183 L 148.088 67.194 C 148.074 67.208 148.061 67.223 148.049 67.239 C 148.044 67.246 148.04 67.253 148.036 67.261 L 148.023 67.272 C 148.013 67.29 148.004 67.309 147.997 67.328 L 146.364 70.127 C 146.283 70.265 146.314 70.431 146.44 70.541 C 146.568 70.65 146.761 70.677 146.921 70.607 L 147.984 70.149 L 147.984 77.421 C 147.984 77.617 148.171 77.778 148.399 77.778 L 160.855 77.778 C 160.881 77.777 160.907 77.772 160.933 77.767 C 160.946 77.764 160.959 77.76 160.971 77.756 C 161.024 77.742 161.072 77.719 161.114 77.689 C 161.124 77.682 161.132 77.674 161.14 77.666 C 161.15 77.66 161.158 77.652 161.166 77.644 L 161.192 77.611 C 161.201 77.604 161.21 77.597 161.218 77.588 L 164.484 74.075 C 164.543 74.012 164.575 73.933 164.575 73.852 L 164.575 70.439 L 166.947 68.398 C 167.078 68.281 167.099 68.102 166.999 67.963 L 164.575 64.495 C 164.56 64.437 164.529 64.383 164.484 64.339 C 164.48 64.331 164.476 64.323 164.471 64.316 L 164.458 64.316 C 164.455 64.309 164.45 64.301 164.445 64.294 L 164.433 64.294 C 164.425 64.286 164.416 64.278 164.407 64.272 C 164.378 64.258 164.348 64.247 164.316 64.238 C 164.307 64.234 164.299 64.23 164.29 64.227 L 164.277 64.227 C 164.269 64.223 164.26 64.219 164.251 64.216 L 152.663 64.216 L 152.663 64.216 Z  M 152.871 64.93 L 163.149 64.93 L 160.661 67.071 L 149.617 67.071 L 152.871 64.93 Z  M 164.083 65.153 L 166.13 68.075 L 163.408 70.417 L 161.361 67.495 L 164.083 65.153 Z  M 148.814 67.785 L 160.427 67.785 L 160.427 77.064 L 148.814 77.064 L 148.814 69.614 C 148.815 69.599 148.815 69.584 148.814 69.569 L 148.814 67.785 Z  M 161.257 68.7 L 162.981 71.175 C 163.044 71.271 163.156 71.336 163.283 71.351 C 163.409 71.366 163.537 71.33 163.629 71.254 L 163.745 71.153 L 163.745 73.73 L 161.257 76.406 L 161.257 68.7 Z  M 147.984 68.945 L 147.984 69.346 L 147.673 69.48 L 147.984 68.945 Z  M 152.43 69.213 C 152.202 69.24 152.041 69.423 152.073 69.619 C 152.106 69.816 152.318 69.954 152.547 69.926 L 156.694 69.926 C 156.844 69.928 156.983 69.861 157.059 69.749 C 157.133 69.638 157.133 69.501 157.059 69.39 C 156.983 69.278 156.843 69.211 156.694 69.213 L 152.43 69.213 Z " fill="rgb(255,211,1)"/><path d="M 10.80578327178955 48.50388717651367 L 10.80578327178955 48.50388717651367" style="fill-opacity: 1; stroke: rgb(0, 129, 161); stroke-opacity: 1; stroke-width: 2; paint-order: stroke;"/><path d="M 70.30876159667969 26.784170150756836 L 70.30876159667969 26.784170150756836" style="fill: rgb(0, 129, 161); fill-opacity: 1; stroke: rgb(0, 0, 0); stroke-opacity: 1; stroke-width: 0; paint-order: fill;"/></g></g></svg>